<svg xmlns="http://www.w3.org/2000/svg" width="75.659" height="87.765" viewBox="0 0 75.659 87.765">
  <path id="noun-time-3687204" d="M160,26.25a4.54,4.54,0,1,0,0,9.079h4.54V38.76a37.844,37.844,0,1,0,9.079,0V35.329h4.54a4.54,4.54,0,1,0,0-9.079ZM169.08,44.4a31.78,31.78,0,1,1-31.78,31.78A31.805,31.805,0,0,1,169.08,44.4Zm0,3.029a28.752,28.752,0,1,0,28.754,28.751A28.727,28.727,0,0,0,169.08,47.434Zm0,3.026a1.513,1.513,0,1,1-1.07.443A1.513,1.513,0,0,1,169.08,50.46Zm-17.1,7.09a1.513,1.513,0,1,1-1.094.443,1.509,1.509,0,0,1,1.094-.443Zm34.238,0a1.513,1.513,0,1,1-1.09.443,1.511,1.511,0,0,1,1.09-.443Zm-4.35,4.282a1.514,1.514,0,0,1,1.44,2.1s-1.546,3.705-3.4,7.72c-.93,2.007-1.937,4.094-2.873,5.851a17.356,17.356,0,0,1-2.6,4.034,7.567,7.567,0,0,1-10.7-10.7,17.33,17.33,0,0,1,4.031-2.6c1.758-.936,3.847-1.941,5.855-2.87,4.014-1.858,7.717-3.408,7.717-3.408a1.519,1.519,0,0,1,.538-.121ZM178.965,66.3c-1.434.622-1.968.83-4.087,1.811-1.977.915-4.024,1.9-5.7,2.79a21.053,21.053,0,0,0-3.3,2.078,4.534,4.534,0,0,0,6.411,6.413,21.15,21.15,0,0,0,2.078-3.307c.89-1.674,1.877-3.717,2.793-5.695.981-2.12,1.187-2.656,1.808-4.09Zm-34.1,8.373a1.513,1.513,0,1,1-1.07.443A1.514,1.514,0,0,1,144.869,74.671Zm24.211,0a1.513,1.513,0,1,1-1.07.443A1.513,1.513,0,0,1,169.08,74.671Zm24.211,0a1.513,1.513,0,1,1-1.07.443A1.514,1.514,0,0,1,193.291,74.671ZM151.983,91.792a1.514,1.514,0,1,1-1.094.444,1.513,1.513,0,0,1,1.094-.444Zm34.238,0a1.514,1.514,0,1,1-1.09.444,1.512,1.512,0,0,1,1.09-.444Zm-17.142,7.09a1.513,1.513,0,1,1-1.07.443A1.513,1.513,0,0,1,169.08,98.882Z" transform="translate(-131.25 -26.25)" fill="#fff" fill-rule="evenodd"/>
</svg>
