<svg xmlns="http://www.w3.org/2000/svg" width="69.756" height="70.067" viewBox="0 0 69.756 70.067">
  <g id="Group_25044" data-name="Group 25044" transform="translate(0 11.162)">
    <g id="Group_25052" data-name="Group 25052" transform="translate(36.755 24.822)">
      <path id="Path_17410" data-name="Path 17410" d="M11.31,6a.808.808,0,0,0-.808.808v3.574l-1.7.98a.808.808,0,1,0,.808,1.4l2.1-1.212a.812.812,0,0,0,.4-.7V6.808A.808.808,0,0,0,11.31,6Z" transform="translate(-3.227 -2.767)" fill="#f47320"/>
      <path id="Path_17411" data-name="Path 17411" d="M10.083,2a8.083,8.083,0,1,0,8.083,8.083A8.083,8.083,0,0,0,10.083,2Zm.808,8.083a.812.812,0,0,1-.4.7L8.387,12a.808.808,0,1,1-.808-1.4l1.7-.98V6.041a.808.808,0,0,1,1.617,0Z" transform="translate(-2 -2)" fill="#fbc7a5"/>
    </g>
    <path id="Path_17390" data-name="Path 17390" d="M2082.437,3685.64l-3.952-3.853a7.159,7.159,0,0,0-7.631-1.525,28.112,28.112,0,0,1-8.712,2.069l-.388.024a1.83,1.83,0,0,0,.171,3.656l10.689-.344a.665.665,0,0,1,.684.641.663.663,0,0,1-.641.684l-10.689.344a3.14,3.14,0,0,1-3.234-3.512l-10.725-5.523a1.918,1.918,0,0,0-1.825,3.374l.016.009,17.655,10.539a8.935,8.935,0,0,0,4.645,1.266h8.55a.667.667,0,0,1,.34.094l3.04,1.816,4.839-8.047-2.708-1.617A.673.673,0,0,1,2082.437,3685.64Z" transform="translate(-2016.668 -3637.773)" fill="#fff"/>
    <path id="Path_17391" data-name="Path 17391" d="M264.036,752.643a2.072,2.072,0,0,0-1.951,2.049c0,.006,0,.012,0,.018v45.45a4.563,4.563,0,0,0,4.2,4.548H298.2L287.287,798.2a3.243,3.243,0,0,1,3.091-5.7l10.541,5.429a3.146,3.146,0,0,1,2.513-1.52l.388-.024a26.807,26.807,0,0,0,8.3-1.978,8.456,8.456,0,0,1,2.131-.538V756.619a4.57,4.57,0,0,0-4.526-3.982h-4.149v.78a3.744,3.744,0,0,1-3.74,3.74h-.153a3.744,3.744,0,0,1-3.74-3.74v-.78h-7.128v.78a3.744,3.744,0,0,1-3.739,3.74h-.153a3.744,3.744,0,0,1-3.74-3.74v-.78h-7.128v.78a3.744,3.744,0,0,1-3.739,3.74h-.153a3.744,3.744,0,0,1-3.74-3.74v-.78H264.28Q264.157,752.637,264.036,752.643Zm4.9,25.017a10.969,10.969,0,1,1,10.969,10.969A10.981,10.981,0,0,1,268.937,777.66Zm19.755-9.723,2.261-2.261a.663.663,0,0,1,.937.937l-2.261,2.26a.663.663,0,1,1-.937-.937Zm-20.77,20.77,2.261-2.261a.663.663,0,0,1,.937.937l-2.261,2.261a.663.663,0,1,1-.937-.937Zm11.984,5.9a.664.664,0,0,1-.663-.663v-3.2a.663.663,0,1,1,1.326,0v3.2A.664.664,0,0,1,279.906,794.608Zm22.038-20.162a9.974,9.974,0,1,1-9.975,9.974A9.986,9.986,0,0,1,301.944,774.446Zm-22.7-13.071a.663.663,0,0,1,1.326,0v3.2a.663.663,0,1,1-1.326,0Zm-11.321,4.3a.664.664,0,0,1,.937,0l2.261,2.261a.663.663,0,0,1-.937.937l-2.261-2.261a.663.663,0,0,1,0-.937Zm-.441,11.984a.664.664,0,0,1-.663.663h-3.2a.663.663,0,1,1,0-1.326h3.2A.663.663,0,0,1,267.481,777.66Z" transform="translate(-258.429 -753.143)" fill="#87a3f6"/>
    <path id="Path_17419" data-name="Path 17419" d="M264.036,752.643a2.072,2.072,0,0,0-1.951,2.049c0,.006,0,.012,0,.018v45.45a4.563,4.563,0,0,0,4.2,4.548H298.2L287.287,798.2a3.243,3.243,0,0,1,3.091-5.7l10.541,5.429a3.146,3.146,0,0,1,2.513-1.52l.388-.024a26.807,26.807,0,0,0,8.3-1.978,8.456,8.456,0,0,1,2.131-.538V756.619a4.57,4.57,0,0,0-4.526-3.982h-4.149v.78a3.744,3.744,0,0,1-3.74,3.74h-.153a3.744,3.744,0,0,1-3.74-3.74v-.78h-7.128v.78a3.744,3.744,0,0,1-3.739,3.74h-.153a3.744,3.744,0,0,1-3.74-3.74v-.78h-7.128v.78a3.744,3.744,0,0,1-3.739,3.74h-.153a3.744,3.744,0,0,1-3.74-3.74v-.78H264.28Q264.157,752.637,264.036,752.643Zm4.9,25.017a10.969,10.969,0,1,1,10.969,10.969A10.981,10.981,0,0,1,268.937,777.66Zm19.755-9.723,2.261-2.261a.663.663,0,0,1,.937.937l-2.261,2.26a.663.663,0,1,1-.937-.937Zm-20.77,20.77,2.261-2.261a.663.663,0,0,1,.937.937l-2.261,2.261a.663.663,0,1,1-.937-.937Zm11.984,5.9a.664.664,0,0,1-.663-.663v-3.2a.663.663,0,1,1,1.326,0v3.2A.664.664,0,0,1,279.906,794.608Zm22.038-20.162a9.974,9.974,0,1,1-9.975,9.974A9.986,9.986,0,0,1,301.944,774.446Zm-22.7-13.071a.663.663,0,0,1,1.326,0v3.2a.663.663,0,1,1-1.326,0Zm-11.321,4.3a.664.664,0,0,1,.937,0l2.261,2.261a.663.663,0,0,1-.937.937l-2.261-2.261a.663.663,0,0,1,0-.937Zm-.441,11.984a.664.664,0,0,1-.663.663h-3.2a.663.663,0,1,1,0-1.326h3.2A.663.663,0,0,1,267.481,777.66Z" transform="translate(-258.429 -753.143)" fill="#7a95e7"/>
    <path id="Path_17420" data-name="Path 17420" d="M9.5,0H5.115C-.444,0,0-.016,0,5.118V41.848l3.083.673V4.681A3.78,3.78,0,0,1,4.672,1.814,15.53,15.53,0,0,1,9.5,0Z" transform="translate(3.659 -0.581)" fill="#304c9f"/>
    <path id="Path_17392" data-name="Path 17392" d="M111.321,90.752h7.128v2.43h-7.128Zm14.76,0h7.128v2.43h-7.128Zm-24.535,54.5a4.564,4.564,0,0,1-4.2-4.549V95.255c0-.006,0-.012,0-.018A2.072,2.072,0,0,1,99.3,93.189q.122-.006.244-.006h4.149v-2.43H99.54a4.531,4.531,0,0,0-4.526,4.526v45.45a4.531,4.531,0,0,0,4.526,4.526h2.007ZM144.99,93.182a4.57,4.57,0,0,1,4.526,3.982V95.278a4.531,4.531,0,0,0-4.526-4.526h-4.149v2.43Zm-22.8,3.194h.153a2.417,2.417,0,0,0,2.414-2.414v-7.7a2.417,2.417,0,0,0-2.414-2.414h-.153a2.417,2.417,0,0,0-2.414,2.414v7.7A2.417,2.417,0,0,0,122.188,96.376Zm6.366,28.59a8.629,8.629,0,0,0,2.967,6.512,8.674,8.674,0,0,1,5.265-13.023.634.634,0,0,1,.57-.122,8.624,8.624,0,0,1,7.048,1.848,8.646,8.646,0,0,0-15.849,4.785Z" transform="translate(-93.688 -93.688)" fill="#fff"/>
    <path id="Path_17394" data-name="Path 17394" d="M843.746,96.376h.153a2.417,2.417,0,0,0,2.414-2.414v-7.7a2.417,2.417,0,0,0-2.414-2.414h-.153a2.417,2.417,0,0,0-2.414,2.414v7.7A2.417,2.417,0,0,0,843.746,96.376Zm-31.934-2.414a2.417,2.417,0,0,0,2.414,2.414h.153a2.417,2.417,0,0,0,2.414-2.414v-7.7a2.417,2.417,0,0,0-2.414-2.414h-.153a2.417,2.417,0,0,0-2.414,2.414v7.7Zm10.151,14.6a9.638,9.638,0,0,0-7.97,15.065,9.676,9.676,0,0,1,17-8.806A9.658,9.658,0,0,0,821.963,108.562Z" transform="translate(-800.486 -93.688)" fill="#fff"/>
    <path id="Path_17395" data-name="Path 17395" d="M940.067,2015.64a8.563,8.563,0,1,0,8.458,7.4,7.077,7.077,0,0,0-8.458-7.4Zm-5.45,8.066a.663.663,0,0,1-.663-.663,4.934,4.934,0,0,1,4.929-4.928.663.663,0,1,1,0,1.326,3.607,3.607,0,0,0-3.6,3.6A.663.663,0,0,1,934.616,2023.706Z" transform="translate(-917.405 -1998.526)" fill="#f47320"/>
    <path id="Path_17396" data-name="Path 17396" d="M341.6,1359.405a10.969,10.969,0,1,0-10.969-10.969A10.981,10.981,0,0,0,341.6,1359.405Zm9.029-14.353a9.642,9.642,0,1,1-9.029-6.259A9.6,9.6,0,0,1,350.628,1345.052Zm-9.029-9.04a.664.664,0,0,0,.663-.663v-3.2a.663.663,0,1,0-1.326,0v3.2A.663.663,0,0,0,341.6,1336.012Zm-16.948,12.425a.663.663,0,0,0,.663.663h3.2a.663.663,0,1,0,0-1.326h-3.2A.664.664,0,0,0,324.652,1348.436Zm17.61,13.088a.663.663,0,1,0-1.326,0v3.2a.663.663,0,0,0,1.326,0v-3.2Zm-10.386-21.874a.663.663,0,1,0,.937-.937l-2.261-2.261a.663.663,0,1,0-.937.937Zm18.978.194a.658.658,0,0,0,.469-.194l2.261-2.261a.663.663,0,1,0-.937-.937l-2.261,2.261a.663.663,0,0,0,.469,1.132Zm-20.77,20.77a.658.658,0,0,0,.469-.194l2.261-2.26a.663.663,0,0,0-.937-.937l-2.261,2.261a.663.663,0,0,0,.469,1.131Z" transform="translate(-320.123 -1323.919)" fill="#3b3b5e"/>
    <path id="Path_17397" data-name="Path 17397" d="M1191.1,2194.332a.663.663,0,0,0,0-1.326,4.934,4.934,0,0,0-4.928,4.928.663.663,0,0,0,1.326,0A3.607,3.607,0,0,1,1191.1,2194.332Z" transform="translate(-1169.624 -2173.417)" fill="#3b3b5e"/>
    <path id="Path_17398" data-name="Path 17398" d="M69.735,48.939a.658.658,0,0,0-.3-.407l-2.79-1.665-3.9-3.8a8.464,8.464,0,0,0-5.59-2.4V1.59A5.858,5.858,0,0,0,51.3-4.262H47.153V-7.422a3.744,3.744,0,0,0-3.74-3.74H43.26a3.744,3.744,0,0,0-3.74,3.74v3.161H32.392V-7.422a3.744,3.744,0,0,0-3.74-3.74H28.5a3.744,3.744,0,0,0-3.74,3.74v3.161H17.632V-7.422a3.744,3.744,0,0,0-3.739-3.74H13.74A3.744,3.744,0,0,0,10-7.422v3.161H5.851A5.858,5.858,0,0,0,0,1.59V47.04a5.858,5.858,0,0,0,5.851,5.851H41.988l4.518,2.7a10.252,10.252,0,0,0,5.329,1.453H60.2l2.963,1.77a.663.663,0,1,0,.68-1.138l-.08-.048L60.72,55.81a.663.663,0,0,0-.34-.094h-8.55a8.934,8.934,0,0,1-4.645-1.266L29.531,43.911l-.016-.009a1.918,1.918,0,0,1,1.825-3.373l10.725,5.523A3.139,3.139,0,0,0,45.3,49.563l10.689-.344a.663.663,0,0,0-.043-1.325l-10.689.344a1.83,1.83,0,0,1-.171-3.656l.388-.024a28.11,28.11,0,0,0,8.712-2.07,7.159,7.159,0,0,1,7.632,1.525l3.952,3.853a.664.664,0,0,0,.123.094L68.6,49.579l.153.091a.663.663,0,0,0,.983-.731Zm-68.41-1.9V1.59A4.531,4.531,0,0,1,5.851-2.936H10V.274a3.744,3.744,0,0,0,3.74,3.74h.153A3.744,3.744,0,0,0,17.632.274v-3.21H24.76V.274a3.744,3.744,0,0,0,3.74,3.74h.153a3.744,3.744,0,0,0,3.74-3.74v-3.21h7.128V.274a3.744,3.744,0,0,0,3.74,3.74h.153a3.744,3.744,0,0,0,3.74-3.74v-3.21H51.3A4.531,4.531,0,0,1,55.827,1.59v39.13a8.456,8.456,0,0,0-2.131.538,26.812,26.812,0,0,1-8.3,1.978L45,43.26a3.146,3.146,0,0,0-2.513,1.52L31.949,39.351a3.243,3.243,0,0,0-3.091,5.7l10.909,6.512H5.851A4.531,4.531,0,0,1,1.326,47.04Zm10-50.632V-7.422A2.417,2.417,0,0,1,13.74-9.836h.153a2.417,2.417,0,0,1,2.414,2.414v7.7a2.417,2.417,0,0,1-2.414,2.414H13.74A2.417,2.417,0,0,1,11.326.274V-3.591Zm14.76-3.831A2.417,2.417,0,0,1,28.5-9.836h.153a2.417,2.417,0,0,1,2.414,2.414v7.7a2.417,2.417,0,0,1-2.414,2.414H28.5A2.417,2.417,0,0,1,26.086.274v-7.7Zm14.76,0A2.417,2.417,0,0,1,43.26-9.836h.153a2.417,2.417,0,0,1,2.414,2.414v7.7a2.417,2.417,0,0,1-2.414,2.414H43.26A2.417,2.417,0,0,1,40.846.274v-7.7Z" transform="translate(0 0)" fill="#304c9f"/>
    <path id="Path_17399" data-name="Path 17399" d="M2404.14,2325.875a9.975,9.975,0,1,0,9.975-9.975A9.986,9.986,0,0,0,2404.14,2325.875Zm17.175-4.785a8.646,8.646,0,1,1-7.2-3.864A8.6,8.6,0,0,1,2421.314,2321.09Z" transform="translate(-2370.599 -2294.597)" fill="#3b3b5e"/>
    <path id="Path_17421" data-name="Path 17421" d="M9.5,42.521H5.116C-.444,42.521,0,42.537,0,37.4V.673L3.08,0V37.84a3.78,3.78,0,0,0,1.592,2.867A15.531,15.531,0,0,0,9.5,42.521Z" transform="translate(3.659 9.045)" fill="#304c9f"/>
  </g>
</svg>
