<svg xmlns="http://www.w3.org/2000/svg" width="63.496" height="61.976" viewBox="0 0 63.496 61.976">
  <g id="Group_25051" data-name="Group 25051" transform="translate(-7199.6 1561.4)">
    <g id="Group_25049" data-name="Group 25049" transform="translate(7200 -1561)">
      <path id="Path_17424" data-name="Path 17424" d="M7.6,0H48.443a7.527,7.527,0,0,1,7.6,7.453l-1.164,9.833c-5.141,3.946-2.238,15.322-6.435,15.322H7.6c-4.2,0-3.236-9.695-6.5-16.13L0,7.453A7.527,7.527,0,0,1,7.6,0Z" transform="translate(0 6.336)" fill="#7a95e7"/>
      <path id="Path_17422" data-name="Path 17422" d="M55.6,34.537V28.886a6.266,6.266,0,0,0,2.5-5.015V16.376A7.548,7.548,0,0,0,50.55,8.844H39.379v-2.8A3.192,3.192,0,0,0,36.188,2.85H24.847a3.192,3.192,0,0,0-3.192,3.192v2.8H9.582A7.532,7.532,0,0,0,2.05,16.376V23.87A6.3,6.3,0,0,0,4.539,28.9V44.349a6.47,6.47,0,0,0,6.469,6.469H34.06A15.377,15.377,0,1,0,55.6,34.537Zm4.9,19.4a.96.96,0,0,0-1.3.351.938.938,0,0,0,.351,1.292l.883.513a13.564,13.564,0,0,1-3.628,3.619l-.5-.874a.953.953,0,0,0-1.653.95l.513.883a13.14,13.14,0,0,1-4.949,1.32V60.972a.95.95,0,1,0-1.9,0v1.016a13.5,13.5,0,0,1-4.949-1.32l.513-.883a.951.951,0,0,0-.351-1.3.938.938,0,0,0-1.292.351l-.513.883a13.559,13.559,0,0,1-3.619-3.628l.883-.513a.949.949,0,0,0-.95-1.643l-.893.513a13.238,13.238,0,0,1-1.32-4.949h1.016a.95.95,0,1,0,0-1.9H35.827a13.328,13.328,0,0,1,1.33-4.949l.883.513a.95.95,0,0,0,1.292-.351.936.936,0,0,0-.342-1.292l-.883-.513a13.388,13.388,0,0,1,3.619-3.619l.513.883a.949.949,0,0,0,1.643-.95l-.513-.883a13.328,13.328,0,0,1,4.949-1.33v1.016a.95.95,0,1,0,1.9,0V35.107a13.14,13.14,0,0,1,4.949,1.32l-.513.893a.953.953,0,0,0,1.653.95l.5-.883a13.559,13.559,0,0,1,3.628,3.619l-.883.513a.938.938,0,0,0-.351,1.292.961.961,0,0,0,1.3.351l.883-.513a13.5,13.5,0,0,1,1.32,4.949H61.692a.95.95,0,1,0,0,1.9h1.016a13.14,13.14,0,0,1-1.32,4.949ZM3.95,16.376a5.639,5.639,0,0,1,5.633-5.633H50.55A5.649,5.649,0,0,1,56.2,16.376V23.87a4.395,4.395,0,0,1-2.964,4.151l-18.874,6.63a4.31,4.31,0,0,0-8.6-.009L6.885,28.021A4.389,4.389,0,0,1,3.95,23.87ZM23.555,6.042A1.293,1.293,0,0,1,24.847,4.75H36.188A1.293,1.293,0,0,1,37.48,6.042v2.8H23.555Zm6.516,33.91a2.414,2.414,0,0,1-2.413-2.4V34.955a2.408,2.408,0,0,1,4.816,0v2.593A2.406,2.406,0,0,1,30.071,39.951Z" transform="translate(-2.05 -2.85)" fill="#304c9f" stroke="#001961" stroke-width="0.8"/>
      <path id="Path_17423" data-name="Path 17423" d="M52.078,50.161a2.278,2.278,0,0,0-1.14-3.011V42.306a.95.95,0,0,0-1.9,0V47.15A2.272,2.272,0,0,0,47.8,49.857l-2.935,1.691a.469.469,0,0,0-.171.646.481.481,0,0,0,.646.18l2.907-1.681a2.354,2.354,0,0,0,2.413.741L52.2,53.191a.953.953,0,0,0,1.434-1.254l-1.558-1.776ZM17.38,18.18h4.037v2.85a.95.95,0,0,0,1.9,0V18.18h20.9a.95.95,0,0,0,0-1.9H17.38a.95.95,0,1,0,0,1.9Z" transform="translate(-2.771 -3.523)" fill="#304c9f"/>
    </g>
    <g id="Group_25050" data-name="Group 25050" transform="translate(7232.207 -1530.313)">
      <path id="Path_17410" data-name="Path 17410" d="M13.869,6A1.519,1.519,0,0,0,12.35,7.519v6.719L9.162,16.08a1.519,1.519,0,1,0,1.519,2.632l3.948-2.279a1.527,1.527,0,0,0,.76-1.316v-7.6A1.519,1.519,0,0,0,13.869,6Z" transform="translate(1.326 0.078)" fill="#f47320"/>
      <path id="Path_17411" data-name="Path 17411" d="M17.195,2A15.195,15.195,0,1,0,32.389,17.195,15.195,15.195,0,0,0,17.195,2Zm1.519,15.195a1.527,1.527,0,0,1-.76,1.316L14.007,20.79a1.519,1.519,0,1,1-1.519-2.632l3.188-1.842V9.6a1.519,1.519,0,1,1,3.039,0Z" transform="translate(-2 -2)" fill="#fbc7a5" stroke="#000" stroke-width="1"/>
    </g>
  </g>
</svg>
