<svg xmlns="http://www.w3.org/2000/svg" width="64.929" height="74.107" viewBox="0 0 64.929 74.107">
  <g id="Group_25047" data-name="Group 25047" transform="translate(-9.064 -2)">
    <rect id="Rectangle_4573" data-name="Rectangle 4573" width="48.34" height="56.13" rx="11" transform="translate(12.928 19.858)" fill="#7a95e7"/>
    <circle id="Ellipse_211" data-name="Ellipse 211" cx="1.452" cy="1.452" r="1.452" transform="translate(9.064 21.885)" fill="#deb8c5"/>
    <path id="Path_17413" data-name="Path 17413" d="M48.174,45.331a1.451,1.451,0,1,1,1.451,1.451,1.451,1.451,0,0,1-1.451-1.451" transform="translate(22.916 21.458)" fill="#02beff"/>
    <circle id="Ellipse_212" data-name="Ellipse 212" cx="1.452" cy="1.452" r="1.452" transform="translate(38.31 12.491)" fill="#ff5f4a"/>
    <path id="Path_17414" data-name="Path 17414" d="M47.04,28.361v7.57A3.265,3.265,0,0,1,43.775,39.2H18.5a3.265,3.265,0,0,1-3.265-3.265v-7.57A3.265,3.265,0,0,1,18.5,25.1H43.775A3.265,3.265,0,0,1,47.04,28.361ZM18.5,46.262H43.775a3.265,3.265,0,0,1,3.265,3.265v13.9a3.265,3.265,0,0,1-3.265,3.265H18.5a3.265,3.265,0,0,1-3.265-3.265v-13.9A3.265,3.265,0,0,1,18.5,46.262ZM65.175,14.885a10.2,10.2,0,1,1-10.2-10.2A10.215,10.215,0,0,1,65.175,14.885Z" transform="translate(6.038 1.376)" fill="#f47320"/>
    <line id="Line_88" data-name="Line 88" x2="5.644" y2="5.643" transform="translate(58.192 13.449)" fill="#06d506"/>
    <line id="Line_89" data-name="Line 89" x1="5.644" y2="5.643" transform="translate(58.192 13.449)" fill="#06d506"/>
    <path id="Path_17415" data-name="Path 17415" d="M44.16,17.43H18.888a4.405,4.405,0,0,0-4.4,4.4v7.577a4.392,4.392,0,0,0,4.4,4.386H44.16a4.4,4.4,0,0,0,4.4-4.386V21.831A4.415,4.415,0,0,0,44.16,17.43Zm2.133,11.978a2.127,2.127,0,0,1-2.133,2.117H18.888a2.127,2.127,0,0,1-2.133-2.117V21.831A2.13,2.13,0,0,1,18.888,19.7H44.16a2.13,2.13,0,0,1,2.133,2.133v7.577ZM44.16,38.6H18.888a4.4,4.4,0,0,0-4.4,4.4V56.9a4.392,4.392,0,0,0,4.4,4.386H44.16a4.4,4.4,0,0,0,4.4-4.386V43A4.405,4.405,0,0,0,44.16,38.6Zm2.133,18.3a2.127,2.127,0,0,1-2.133,2.117H18.888A2.127,2.127,0,0,1,16.755,56.9V43a2.13,2.13,0,0,1,2.133-2.133H44.16A2.13,2.13,0,0,1,46.292,43V56.9Z" transform="translate(5.655 7.906)" fill="#304c9f"/>
    <path id="Path_17416" data-name="Path 17416" d="M39.411,20.832H19.88a1.134,1.134,0,0,0,0,2.269h.594v1.744a1.134,1.134,0,0,0,2.269,0V23.1H39.411a1.134,1.134,0,1,0,0-2.269Zm0,21.992H19.88a1.134,1.134,0,0,0,0,2.269h.594v1.744a1.134,1.134,0,0,0,2.269,0V45.092H39.411a1.134,1.134,0,1,0,0-2.269Z" transform="translate(7.837 9.649)" fill="#304c9f"/>
    <path id="Path_17417" data-name="Path 17417" d="M68.658,16.262a10.957,10.957,0,0,0-21.914,0,10.439,10.439,0,0,0,.227,2.178h-3.6V7.929h.59A2.964,2.964,0,1,0,43.96,2H23.755a2.964,2.964,0,1,0,0,5.929h.6V18.44H20.821a10.905,10.905,0,0,0-10.9,10.889V65.2a10.908,10.908,0,0,0,10.9,10.9H46.91A10.9,10.9,0,0,0,57.8,65.2V29.329a10.655,10.655,0,0,0-.212-2.1h.121A10.969,10.969,0,0,0,68.658,16.262ZM22.3,4.964a1.452,1.452,0,0,1,1.452-1.452H43.96a1.452,1.452,0,1,1,0,2.9H23.755A1.452,1.452,0,0,1,22.3,4.964Zm3.569,2.964H41.858V18.44H25.872Zm30.414,21.4V65.2a9.4,9.4,0,0,1-9.377,9.392H20.821A9.411,9.411,0,0,1,11.429,65.2V29.329a9.4,9.4,0,0,1,9.392-9.377H46.91a2.764,2.764,0,0,1,.5.03A10.869,10.869,0,0,0,56,27.075,8.6,8.6,0,0,1,56.286,29.329ZM48.256,16.262a9.445,9.445,0,1,1,9.452,9.452A9.453,9.453,0,0,1,48.256,16.262Z" transform="translate(3.313 0)" fill="#304c9f"/>
    <path id="Path_17418" data-name="Path 17418" d="M12.18,6a1.05,1.05,0,0,0-1.05,1.05v4.643l-2.2,1.273a1.05,1.05,0,1,0,1.05,1.819L12.7,13.209a1.055,1.055,0,0,0,.525-.909V7.05A1.05,1.05,0,0,0,12.18,6Z" transform="translate(48.945 4.933)" fill="#304c9f"/>
  </g>
</svg>
