<svg xmlns="http://www.w3.org/2000/svg" width="72.198" height="69.82" viewBox="0 0 72.198 69.82">
  <g id="Group_25048" data-name="Group 25048" transform="translate(-8311.511 1468)">
    <g id="Group_25045" data-name="Group 25045" transform="translate(8311.511 -1468)">
      <rect id="Rectangle_4574" data-name="Rectangle 4574" width="61" height="45" rx="9" transform="translate(0.248 10.16)" fill="#7a95e7"/>
      <path id="Path_17405" data-name="Path 17405" d="M46.6,44.02a1.21,1.21,0,1,1,1.21,1.21,1.21,1.21,0,0,1-1.21-1.21" transform="translate(8.889 6.162)" fill="#fdcb4d"/>
      <circle id="Ellipse_209" data-name="Ellipse 209" cx="1.21" cy="1.21" r="1.21" transform="translate(46.474 5.177)" fill="#06d506"/>
      <circle id="Ellipse_210" data-name="Ellipse 210" cx="1.21" cy="1.21" r="1.21" transform="translate(6.206 4.704)" fill="#ff5892"/>
      <path id="Path_17406" data-name="Path 17406" d="M36.822,6.483A6.958,6.958,0,0,0,24.941,11.4v9.841H38.864V11.4A6.89,6.89,0,0,0,36.822,6.483ZM31.9,14.144a2.816,2.816,0,0,1,0-5.632,2.816,2.816,0,1,1,0,5.632Zm-.777,16.813v14.9A3.417,3.417,0,0,1,27.7,49.278H11.863a3.417,3.417,0,0,1-3.417-3.417v-14.9a3.417,3.417,0,0,1,3.417-3.417H27.7a3.417,3.417,0,0,1,3.417,3.417Z" transform="translate(-1.03 -3.813)" fill="#f47320"/>
      <path id="Path_17407" data-name="Path 17407" d="M27.65,43.5a8.462,8.462,0,0,0-16.922,0ZM23.441,30.9a4.247,4.247,0,1,1-1.25-3.007A4.261,4.261,0,0,1,23.441,30.9Z" transform="translate(-0.436 1.962)" fill="#fbc7a5"/>
      <path id="Path_17408" data-name="Path 17408" d="M56.208,13.881H41.02V11.532a7.588,7.588,0,1,0-15.177,0v2.349H10.653A8.1,8.1,0,0,0,2.56,21.972V51.328a8.1,8.1,0,0,0,8.093,8.092H56.208A8.1,8.1,0,0,0,64.3,51.328V21.974a8.1,8.1,0,0,0-8.092-8.093ZM33.43,5.2a6.335,6.335,0,0,1,6.329,6.329v9.2H27.1v-9.2A6.337,6.337,0,0,1,33.43,5.2ZM63.04,51.328a6.839,6.839,0,0,1-6.832,6.832H10.653A6.842,6.842,0,0,1,3.82,51.328V21.974a6.841,6.841,0,0,1,6.833-6.832H25.842V20.73H20.766a.63.63,0,0,0,0,1.26c43.716.011-3.061,0,25.331,0a.63.63,0,0,0,0-1.26H41.02V15.141H56.21a6.841,6.841,0,0,1,6.832,6.832V51.328Z" transform="translate(-2.56 -3.943)" fill="#2e3f68"/>
      <path id="Path_17409" data-name="Path 17409" d="M27.83,26.2H11.993a4.053,4.053,0,0,0-4.048,4.047v14.9A4.05,4.05,0,0,0,11.993,49.2h16.38a4.139,4.139,0,0,0,3.505-4.047v-14.9A4.052,4.052,0,0,0,27.83,26.2ZM12.118,47.937a7.833,7.833,0,0,1,15.59,0Zm4.171-11.973A3.623,3.623,0,1,1,19.9,39.6a3.619,3.619,0,0,1-3.615-3.631Zm14.33,9.184A2.792,2.792,0,0,1,28.947,47.7a9.154,9.154,0,0,0-6.326-7.671,4.881,4.881,0,1,0-5.421,0,9.152,9.152,0,0,0-6.321,7.67,2.788,2.788,0,0,1-1.672-2.552v-14.9a2.791,2.791,0,0,1,2.788-2.787H27.832a2.791,2.791,0,0,1,2.788,2.787v14.9ZM55.772,29.5H37.243a.63.63,0,1,0,0,1.26h18.53a.63.63,0,0,0,0-1.26Zm0,5.888H37.243a.63.63,0,1,0,0,1.26h18.53a.63.63,0,0,0,0-1.26Zm0,5.888H37.243a.63.63,0,1,0,0,1.26h18.53a.63.63,0,0,0,0-1.26ZM32.024,14.057a3.44,3.44,0,1,0-3.43-3.43A3.444,3.444,0,0,0,32.024,14.057Zm0-5.62a2.18,2.18,0,1,1-2.17,2.19A2.193,2.193,0,0,1,32.024,8.437Z" transform="translate(-1.16 -3.102)" fill="#2e3f68"/>
    </g>
    <g id="Group_25046" data-name="Group 25046" transform="translate(8351.216 -1430.673)">
      <path id="Path_17410" data-name="Path 17410" d="M14.158,6a1.6,1.6,0,0,0-1.6,1.6v7.074L9.2,16.612a1.6,1.6,0,1,0,1.6,2.771l4.156-2.4a1.608,1.608,0,0,0,.8-1.385v-8A1.6,1.6,0,0,0,14.158,6Z" transform="translate(1.839 0.399)" fill="#f47320"/>
      <path id="Path_17411" data-name="Path 17411" d="M18,2a16,16,0,1,0,16,16A16,16,0,0,0,18,2Zm1.6,16a1.608,1.608,0,0,1-.8,1.385l-4.156,2.4a1.6,1.6,0,1,1-1.6-2.771L16.4,17.072V10a1.6,1.6,0,0,1,3.2,0Z" transform="translate(-2 -2)" fill="#fbc7a5" stroke="#000" stroke-width="1"/>
    </g>
  </g>
</svg>
