<svg xmlns="http://www.w3.org/2000/svg" width="158.419" height="188.184" viewBox="0 0 158.419 188.184">
  <g id="Group_26821" data-name="Group 26821" transform="translate(0 0.5)" opacity="0.9">
    <path id="Path_823" data-name="Path 823" d="M327.13,114.881a57.44,57.44,0,1,1,57.44-57.44A57.44,57.44,0,0,1,327.13,114.881Z" transform="translate(-226.652 0)" fill="none" stroke="#000" stroke-width="1"/>
    <path id="Path_825" data-name="Path 825" d="M335.174,121.312a55.677,55.677,0,1,0-21.459-4.236A56.046,56.046,0,0,0,335.174,121.312Zm0-111.845a55.8,55.8,0,1,1-55.8,55.8A55.863,55.863,0,0,1,335.174,9.467Z" transform="translate(-234.777 -7.779)"/>
    <path id="Path_826" data-name="Path 826" d="M331.346,17.42h1.286V28.069h-1.286Zm0,99.182h1.286v10.649h-1.286Zm47.879-72.433.643,1.113-9.222,5.324L370,49.493Z" transform="translate(-231.592 -14.696)" fill="#f47320"/>
    <path id="Path_827" data-name="Path 827" d="M889.781,505.539l.643,1.113-9.222,5.324-.643-1.113Z" transform="translate(-828.041 -426.476)" fill="#ffcd6a"/>
    <path id="Path_828" data-name="Path 828" d="M417.885,130.89l9.222,5.324-.643,1.113L417.242,132ZM331.992,81.3l9.222,5.325-.643,1.113-9.222-5.324Zm69.924,66.029,5.324,9.222-1.113.643-5.324-9.222ZM352.328,61.436l5.324,9.222-1.113.643-5.324-9.222Zm53.8,0,1.113.643L401.917,71.3l-1.113-.643Zm-49.591,85.892,1.113.643-5.324,9.222-1.113-.643Z" transform="translate(-278.831 -51.827)" fill="#f47320"/>
    <path id="Path_829" data-name="Path 829" d="M920.54,363.47h10.649v1.286H920.54Z" transform="translate(-875.059 -306.626)" fill="#ffcd6a"/>
    <path id="Path_830" data-name="Path 830" d="M286.36,363.47h10.649v1.286H286.36Z" transform="translate(-141.697 -306.626)" fill="#f47320"/>
    <path id="Path_831" data-name="Path 831" d="M622.143,354.175a2.982,2.982,0,1,1,2.982-2.982A2.982,2.982,0,0,1,622.143,354.175Z" transform="translate(-521.861 -293.752)"/>
    <path id="Path_832" data-name="Path 832" d="M632.581,84.819l-.748.345a.732.732,0,0,0-.358.971l20.118,43.579,2.076-.958L633.55,85.177a.732.732,0,0,0-.97-.358Z" transform="translate(-552.32 -71.497)"/>
    <path id="Path_833" data-name="Path 833" d="M631.386,406.657l-.8-.21a.732.732,0,0,1-.523-.894l11.987-45.722a.732.732,0,0,1,.893-.522l.8.21a.732.732,0,0,1,.522.893L632.28,406.134A.732.732,0,0,1,631.386,406.657Z" transform="translate(-542.727 -303.095)"/>
    <path id="Path_842" data-name="Path 842" d="M861.389,390.53s6.475,10.536,4.514,14.7-13.106,7.371-13.35,12.016-9.26-.874-7.022-7.915S861.389,390.53,861.389,390.53Z" transform="translate(-798.356 -329.454)"/>
    <path id="Path_843" data-name="Path 843" d="M714.36,581.892v85.391h18.454v-57.5l33.24,60.8,16.662-11.551-34.4-70.928S739.608,581.462,714.36,581.892Z" transform="translate(-694.341 -490.871)" fill="#f47320"/>
    <path id="Path_844" data-name="Path 844" d="M1118.111,220.415s-2.346-5.805-4.307-5.805c0,0-.655.047-.4,1.054,0,0-1-1.359-1.925-.773,0,0-.593.421,0,1.5,0,0-.954-1.686-2.335-1.148,0,0-1.068.094,0,2.5,0,0-1.17-1.639-2.2-.984s2.527,7.372,2.527,7.372l-.444,3.769s.715,6.692,7.507,4.005C1119.182,230.867,1118.111,220.415,1118.111,220.415Z" transform="translate(-1091.319 -181.046)" fill="#fff"/>
    <path id="Path_845" data-name="Path 845" d="M1112.614,231.743a8.25,8.25,0,0,0,2.993-.649c2.739-1.082,1.72-11.253,1.684-11.684l-.012-.05c-.1-.242-2.412-5.919-4.478-5.919a.677.677,0,0,0-.49.278.843.843,0,0,0-.147.424,1.458,1.458,0,0,0-1.784-.394.966.966,0,0,0-.274.363.977.977,0,0,0-.077.447,1.841,1.841,0,0,0-1.933-.482.7.7,0,0,0-.272.12.684.684,0,0,0-.2.223,1.987,1.987,0,0,0,.015,1.539,1.494,1.494,0,0,0-1.8-.336c-1.078.685,1.564,5.895,2.437,7.563l-.44,3.732v.022a6.029,6.029,0,0,0,2.449,4.194A4.41,4.41,0,0,0,1112.614,231.743Zm4.315-12.272c.292,2.889.6,10.469-1.456,11.281s-3.725.83-4.989.066a5.7,5.7,0,0,1-2.272-3.9l.449-3.8-.027-.05c-1.672-3.159-3.139-6.784-2.591-7.133.876-.557,1.941.92,1.952.938l1.048,1.467-.73-1.648c-.586-1.326-.483-1.866-.371-2.069a.348.348,0,0,1,.091-.115.331.331,0,0,1,.133-.064l.045-.011c1.214-.469,2.072,1,2.108,1.067l.313-.18c-.5-.906-.07-1.251-.052-1.262.763-.479,1.659.721,1.669.733l.56.762-.233-.916a.878.878,0,0,1,.025-.693.3.3,0,0,1,.091-.087.317.317,0,0,1,.119-.044C1114.3,213.808,1116.279,217.872,1116.928,219.471Z" transform="translate(-1090.316 -180.059)"/>
    <path id="Path_846" data-name="Path 846" d="M1052.678,241.578h10.94l-4.038-14.138h-10.94Z" transform="translate(-1027.522 -191.87)" fill="#f47320"/>
    <path id="Path_847" data-name="Path 847" d="M1051.229,240.756h11.322l-4.144-14.506H1047.08Zm10.835-.368h-10.558l-3.935-13.771h10.558Z" transform="translate(-1026.21 -190.866)"/>
    <path id="Path_848" data-name="Path 848" d="M867.62,187.351s-.436-5.389,4.41-6.955c6.038-1.95,11.218-1.647,13.666,1.681,1.95,2.659,2.19,3.921,5.579,3.694s4.581,2.926,5.863,5.934,1.056,5.505,5.051,7.691,4.4,12.013,2.139,12.843-28.307,1.935-32.147.8S867.62,187.351,867.62,187.351Z" transform="translate(-841.295 -151.163)"/>
    <path id="Path_849" data-name="Path 849" d="M699.441,263.622c-.052-2.1,1.6-4.823,2.789-6.551.6-.873,1.486-2.1,2.749-3.733l9.033-11.676a.446.446,0,0,1,.175-.1.442.442,0,0,1,.386.066.444.444,0,0,1,.131.152c.424.793,3.883,7.049,8.007,9.29l-4.066,4.349a33.08,33.08,0,0,1,4.681-.552c4.762-.274,12.749.9,17.1.1,5.3-.979,11.856.436,13.353.654s15.311.654,15.311.654l7.943-18.949c4.95,1.2,11.174,8.514,11.174,8.514s-4.038,19.912-7.261,23.07-29.469,2.5-29.469,2.5c-.1,9.7,0,26.029,0,26.029-10.361-6.642-33.959-6.207-33.959-6.207a175.3,175.3,0,0,1,.222-21.019c-7.521.238-12.708-.036-13.742-.49A6.918,6.918,0,0,1,699.441,263.622Z" transform="translate(-697.495 -200.205)" fill="#fff"/>
    <path id="Path_850" data-name="Path 850" d="M750.542,296.611v-.338c0-.156-.1-16.237,0-25.841,2.549.058,26.284.508,29.416-2.562,3.228-3.161,7.147-22.349,7.313-23.165l.017-.088-.058-.067c-.255-.3-6.32-7.376-11.271-8.573l-.156-.038-7.954,18.978c-1.393-.044-13.763-.444-15.17-.647-.191-.028-.469-.075-.809-.135-2.382-.413-7.957-1.378-12.605-.518-2.512.469-6.271.261-9.908.066a70.121,70.121,0,0,0-7.138-.166h-.012a29.463,29.463,0,0,0-4.179.469l3.863-4.129-.208-.113c-4.124-2.243-7.555-8.509-7.932-9.216a.63.63,0,0,0-.982-.169l-.019.02-9.027,11.676c-1.095,1.408-2.016,2.67-2.756,3.741-1.913,2.77-2.862,5-2.815,6.661a7.079,7.079,0,0,0,4.665,6.265c1.157.51,6.742.718,13.606.51a173.187,173.187,0,0,0-.208,20.849l.017.167h.167c.236,0,23.662-.36,33.858,6.178Zm-.368-26.556v.188c-.1,8.819-.017,23.315,0,25.7-9.959-6.121-31.474-6.079-33.607-6.06a178.008,178.008,0,0,1,.241-20.821l.012-.2h-.2c-7.709.242-12.708-.055-13.663-.469a6.719,6.719,0,0,1-4.437-5.935c-.039-1.564.888-3.738,2.756-6.443.735-1.065,1.659-2.319,2.743-3.724l9.022-11.664a.257.257,0,0,1,.1-.053.256.256,0,0,1,.294.131c.377.705,3.754,6.866,7.875,9.249l-4.279,4.573.533-.088a38.077,38.077,0,0,1,4.3-.543l-.009.014.366-.019c1.977-.114,4.476.02,7.122.156,3.658.2,7.441.4,9.995-.07,4.582-.848,10.112.11,12.474.518.349.061.625.109.819.138,1.49.216,14.767.637,15.327.655h.127l7.931-18.924c4.559,1.214,10.233,7.618,10.868,8.348-.3,1.447-4.152,19.91-7.194,22.887-3.128,3.068-29.075,2.46-29.337,2.452Z" transform="translate(-696.378 -199.04)"/>
    <path id="Path_851" data-name="Path 851" d="M980.746,348.92s-10.929,10.322-15.553,16.04c0,0-9.177-7.136-7.258-15.988Z" transform="translate(-930.422 -294.351)" fill="#f47320"/>
    <path id="Path_852" data-name="Path 852" d="M962.443,364.246l.113-.141c4.564-5.646,15.428-15.919,15.538-16.023l.336-.313-23.423.053-.031.144c-1.922,8.861,7.233,16.109,7.325,16.173Zm15.062-16.109c-1.858,1.769-10.94,10.478-15.118,15.6-1.132-.938-8.7-7.573-7.082-15.547Z" transform="translate(-927.644 -293.381)"/>
    <path id="Path_853" data-name="Path 853" d="M990.371,225.369s-1.443,6.733-.962,10.808a3.558,3.558,0,0,0,3.334,3.165,1.879,1.879,0,0,0,.515-.039l-.288,6.426s4.62,3.25,11.191-1.228c0,0-3.032-8.086-2.311-9.892s5.27-.577,4.911-3.971-6.354-1.154-6.354-1.154-2.455.505-3.322-1.3-1.3-1.589-2.382-1.733-2.312-2.168-3.25-1.877S990.371,225.369,990.371,225.369Z" transform="translate(-961.407 -189.43)" fill="#fff"/>
    <path id="Path_854" data-name="Path 854" d="M661.331,246.051a12.344,12.344,0,0,0,6.975-2.383l.119-.081-.05-.136c-1.04-2.774-2.864-8.383-2.313-9.759.258-.644,1.132-.866,2.06-1.095,1.45-.366,3.1-.782,2.864-2.957a2.037,2.037,0,0,0-.955-1.6c-1.769-1.095-5.333.181-5.63.291-.184.033-2.346.388-3.106-1.2s-1.232-1.7-2.136-1.794c-.12-.011-.249-.023-.388-.042a3.5,3.5,0,0,1-1.447-.938c-.655-.576-1.275-1.118-1.877-.938-1.021.313-1.2.895-1.2.92v.011c-.016.069-1.444,6.809-.963,10.869a3.761,3.761,0,0,0,3.508,3.327,2.809,2.809,0,0,0,.328,0l-.283,6.3.083.058A8.284,8.284,0,0,0,661.331,246.051Zm6.648-2.607c-5.847,3.91-10.139,1.592-10.78,1.2l.3-6.569-.239.059a1.624,1.624,0,0,1-.469.033,3.387,3.387,0,0,1-3.159-3c-.469-3.924.891-10.43.956-10.736.019-.047.191-.432.96-.669.408-.125.979.374,1.529.859a3.643,3.643,0,0,0,1.641,1.026c.144.019.277.033.4.044.782.077,1.132.111,1.841,1.586.918,1.913,3.5,1.408,3.525,1.408h.027c.036-.014,3.671-1.351,5.325-.328a1.641,1.641,0,0,1,.782,1.331c.2,1.858-1.156,2.2-2.589,2.563-1.02.257-1.981.5-2.31,1.32C665.025,235.294,667.571,242.336,667.979,243.444Zm-8.311,121.41v11.271H635.49l15.356-7.971.491-3.3Zm42.018.163,7.807,11.109,16.664-20.747-14.376,6.861-3.6-1.722Z" transform="translate(-625.448 -188.441)"/>
    <path id="Path_855" data-name="Path 855" d="M1090.647,253.66s-.863,2.624-.5,3.073a.9.9,0,0,0,.452.313" transform="translate(-1061.029 -213.989)" fill="#fff"/>
    <path id="Path_856" data-name="Path 856" d="M1052.493,256.235a.182.182,0,0,0,.122-.048.186.186,0,0,0,.059-.117.193.193,0,0,0-.033-.127.189.189,0,0,0-.11-.073.733.733,0,0,1-.349-.247,6.865,6.865,0,0,1,.528-2.9.155.155,0,0,0,.008-.071.185.185,0,0,0-.063-.125.185.185,0,0,0-.2-.024.192.192,0,0,0-.056.044.185.185,0,0,0-.035.062c-.209.638-.863,2.759-.469,3.247a1.069,1.069,0,0,0,.554.375Zm2.166-2.712a.429.429,0,1,1,.429-.429A.429.429,0,0,1,1054.659,253.523Zm.189,9.205a36.487,36.487,0,0,0,3.677-1.287s-2.276,3.008-3.84,3.308Z" transform="translate(-1022.919 -212.995)"/>
    <path id="Path_857" data-name="Path 857" d="M691.419,152.959a1.021,1.021,0,0,0,.069-.882c-.169-.444-.626-.9-1.877-.427s-2.36,1.885-3.707,1.442a9.2,9.2,0,0,1-3.733-4.928c-.569-2.346-2.014-6.569-5.318-8.642,0,0-1.913-1.262-.564,2.18s.91,3.042.91,3.042-1,7.682-.519,9.878l9.759,6.908s1.919-1.261,2.4-4.969A21.216,21.216,0,0,0,691.419,152.959Z" transform="translate(-597.152 -117.511)" fill="#fff"/>
    <path id="Path_858" data-name="Path 858" d="M685.433,160.764l.1-.069c.081-.053,1.977-1.336,2.477-5.042a21.692,21.692,0,0,0,2.556-3.6,1.2,1.2,0,0,0,.081-1.038,1.111,1.111,0,0,0-.582-.641,2.023,2.023,0,0,0-1.528.108,6.913,6.913,0,0,0-1.251.708c-.782.513-1.515,1-2.326.73a7.363,7.363,0,0,1-2-1.811,7,7,0,0,1-1.622-2.981c-.576-2.366-2.041-6.651-5.391-8.758-.069-.045-.707-.449-1.095-.135s-.3,1.114.26,2.538a23.109,23.109,0,0,1,.938,2.69l-.034.261c-.041.313-1,7.74-.518,9.94l.016.07Zm4.1-10.125a.974.974,0,0,1,.391.074.751.751,0,0,1,.389.438.846.846,0,0,1-.058.726,21.257,21.257,0,0,1-2.548,3.57l-.041.044v.058a7.158,7.158,0,0,1-2.23,4.761l-9.59-6.787c-.4-2.068.4-8.627.522-9.62.138-.1.244-.321-.907-3.259-.666-1.7-.452-2.052-.371-2.118.128-.1.469.031.665.156,3.244,2.033,4.67,6.22,5.233,8.531a7.36,7.36,0,0,0,1.7,3.14,7.014,7.014,0,0,0,2.155,1.914,3.066,3.066,0,0,0,2.641-.771,6.621,6.621,0,0,1,1.187-.672A2.441,2.441,0,0,1,689.529,150.639Z" transform="translate(-596.144 -116.519)"/>
    <path id="Path_859" data-name="Path 859" d="M758.49,167.74a33.189,33.189,0,0,1,1.584,6.741Z" transform="translate(-678.601 -141.507)" fill="#fff"/>
    <path id="Path_860" data-name="Path 860" d="M759.08,173.583h.027a.184.184,0,0,0,.122-.071.19.19,0,0,0,.031-.065.178.178,0,0,0,0-.072,32.854,32.854,0,0,0-1.594-6.78.183.183,0,0,0-.035-.067.184.184,0,0,0-.208-.055.18.18,0,0,0-.064.041.184.184,0,0,0-.055.138.18.18,0,0,0,.018.074,32.539,32.539,0,0,1,1.575,6.7.182.182,0,0,0,.18.155Z" transform="translate(-677.606 -140.427)"/>
    <path id="Path_861" data-name="Path 861" d="M1005.227,263.4a2.72,2.72,0,0,0-1.877.518Z" transform="translate(-962.048 -222.201)" fill="#fff"/>
    <path id="Path_862" data-name="Path 862" d="M1002.371,263.08a.183.183,0,0,0,.072-.014.186.186,0,0,0,.059-.041,2.587,2.587,0,0,1,1.733-.469.184.184,0,0,0,.2-.169.19.19,0,0,0-.044-.134.186.186,0,0,0-.125-.065,2.936,2.936,0,0,0-2.033.574.172.172,0,0,0-.05.094.179.179,0,0,0,.011.106.184.184,0,0,0,.067.082.187.187,0,0,0,.1.03Z" transform="translate(-961.071 -221.179)"/>
    <path id="Path_863" data-name="Path 863" d="M1066.259,276.406a2.576,2.576,0,0,0,2.241-.4c.469-.375-.795,1.383-2.022,1.6" transform="translate(-1035.26 -232.797)" fill="#fff"/>
    <path id="Path_864" data-name="Path 864" d="M1056.393,276.815h.031a3.963,3.963,0,0,0,2.271-1.777.206.206,0,0,0-.016-.119.217.217,0,0,0-.075-.093c-.127-.077-.252.022-.313.064a2.4,2.4,0,0,1-2.033.383.176.176,0,0,0-.07-.035.184.184,0,0,0-.078,0,.184.184,0,0,0-.125.088.208.208,0,0,0-.023.075.166.166,0,0,0,.009.078.21.21,0,0,0,.041.067.186.186,0,0,0,.066.043,2.446,2.446,0,0,0,1.758-.045,3.149,3.149,0,0,1-1.479.9.175.175,0,0,0-.069.025.191.191,0,0,0-.055.05.172.172,0,0,0-.03.067.165.165,0,0,0,0,.073.186.186,0,0,0,.068.115A.184.184,0,0,0,1056.393,276.815Zm3.37,46.857.363-.064c-2.726-15.17-.044-21.041-.016-21.1l-.332-.156C1059.665,302.589,1057.012,308.355,1059.763,323.672Z" transform="translate(-1025.175 -231.822)"/>
    <path id="Path_865" data-name="Path 865" d="M829.6,379.783a1.518,1.518,0,1,0-1.073-.445A1.519,1.519,0,0,0,829.6,379.783Zm0-2.668a1.149,1.149,0,1,1-.813.337,1.146,1.146,0,0,1,.813-.337Zm-19.443-18.9a19.6,19.6,0,0,1,4.586-5.81l-.232-.286a19.96,19.96,0,0,0-4.675,5.916Zm56.4-2.224.357-.089a6.213,6.213,0,0,0-1.731-2.925l-.243.275A5.963,5.963,0,0,1,866.564,355.992Zm-34.8,49.428h.368v68.041h-.368Zm-12.474-14.029.335.15-3.844,8.577-.335-.15Zm22.071,2.763,8.533,9.914-.278.24-8.534-9.914Z" transform="translate(-793.478 -297.051)"/>
    <path id="Path_866" data-name="Path 866" d="M719.307,1106.949c.059-.139.033-.346-.429-.541-1.071-.455-4.506-.805-4.8-.12l.227.1c.177-.418,3.314-.244,4.476.25.242.1.313.189.3.22ZM775.5,1104.7h.245a6.761,6.761,0,0,1,4.032-6.412l-.086-.23A7.018,7.018,0,0,0,775.5,1104.7Z" transform="translate(-691.354 -926.33)" fill="#fff"/>
    <path id="Path_867" data-name="Path 867" d="M891.44,329.668a.19.19,0,0,0,.143-.069.187.187,0,0,0,.04-.134.185.185,0,0,0-.021-.069L858.356,268.59a.184.184,0,0,0-.109-.088.184.184,0,0,0-.228.125.189.189,0,0,0,.016.14l33.244,60.806a.18.18,0,0,0,.067.07A.179.179,0,0,0,891.44,329.668ZM822.9,195.586a.19.19,0,0,0,.077-.017l7.615-3.475a.174.174,0,0,0,.058-.043.164.164,0,0,0,.037-.062.184.184,0,0,0,.011-.071.182.182,0,0,0-.017-.07.207.207,0,0,0-.042-.058.19.19,0,0,0-.062-.037.18.18,0,0,0-.071-.011.186.186,0,0,0-.07.017l-7.612,3.475a.189.189,0,0,0-.088.085.192.192,0,0,0-.016.121.194.194,0,0,0,.064.1A.186.186,0,0,0,822.9,195.586Zm7.652-7.271a.184.184,0,0,0,.18-.156.187.187,0,0,0,0-.072.241.241,0,0,0-.028-.066.183.183,0,0,0-.119-.076l-10.635-2.033a.187.187,0,0,0-.216.147.182.182,0,0,0,0,.072.239.239,0,0,0,.028.066.188.188,0,0,0,.052.05.184.184,0,0,0,.067.026l10.635,2.033Zm1.1-3.176a.189.189,0,0,0,.1-.031.182.182,0,0,0,.078-.117.186.186,0,0,0-.027-.138l-4.773-7.23a.219.219,0,0,0-.05-.052.188.188,0,0,0-.141-.03.185.185,0,0,0-.119.078.2.2,0,0,0-.03.067.187.187,0,0,0,0,.073.178.178,0,0,0,.026.068l4.775,7.23a.183.183,0,0,0,.069.062A.181.181,0,0,0,831.647,185.139Z" transform="translate(-819.727 -149.772)"/>
    <path id="Path_868" data-name="Path 868" d="M1151.17,234.67a29.059,29.059,0,0,1,2.233,4.238Z" transform="translate(-1133.343 -197.969)" fill="#fff"/>
    <path id="Path_869" data-name="Path 869" d="M1152.415,238.025a.183.183,0,0,0,.155-.083.189.189,0,0,0,.03-.086.192.192,0,0,0-.016-.089,29.594,29.594,0,0,0-2.25-4.268.187.187,0,0,0-.05-.057.18.18,0,0,0-.069-.032.178.178,0,0,0-.075,0,.169.169,0,0,0-.07.029.181.181,0,0,0-.053.055.192.192,0,0,0-.025.071.156.156,0,0,0,0,.076.184.184,0,0,0,.034.067,29.258,29.258,0,0,1,2.218,4.209.182.182,0,0,0,.167.109Z" transform="translate(-1132.354 -196.903)"/>
    <path id="Path_870" data-name="Path 870" d="M1135.52,226a34.08,34.08,0,0,1,2.346,5.078Z" transform="translate(-1115.358 -190.655)" fill="#fff"/>
    <path id="Path_871" data-name="Path 871" d="M1136.726,230.631l.357-.088a33.051,33.051,0,0,0-2.36-5.123l-.313.177A35.012,35.012,0,0,1,1136.726,230.631Z" transform="translate(-1114.401 -190.166)"/>
  </g>
</svg>
