<svg id="Group_25054" data-name="Group 25054" xmlns="http://www.w3.org/2000/svg" width="73.826" height="78.878" viewBox="0 0 73.826 78.878">
  <ellipse id="Ellipse_217" data-name="Ellipse 217" cx="33.471" cy="33.471" rx="33.471" ry="33.471" transform="translate(6.883 1.698)" fill="#7a95e7"/>
  <path id="Path_17425" data-name="Path 17425" d="M1059.259,627.219a33.4,33.4,0,1,1-2.948-48.705l2.948,48.705Z" transform="translate(-994.721 -569.293)" fill="#7a95e7"/>
  <path id="Path_17426" data-name="Path 17426" d="M1003.618,607.1a34.5,34.5,0,0,1-6.9-.7,34.067,34.067,0,0,1-12.249-5.154,34.353,34.353,0,0,1-12.409-15.069,34.09,34.09,0,0,1-2-6.431,34.575,34.575,0,0,1,0-13.8,34.064,34.064,0,0,1,5.154-12.249,34.349,34.349,0,0,1,15.069-12.409,34.085,34.085,0,0,1,6.431-2,34.5,34.5,0,0,1,6.9-.7,34.115,34.115,0,0,1,21.837,7.863.855.855,0,1,1-1.091,1.317,32.543,32.543,0,1,0-20.747,57.615,32.25,32.25,0,0,0,23.619-10.156.855.855,0,0,1,1.241,1.176,34.327,34.327,0,0,1-11.1,7.813,34.087,34.087,0,0,1-6.625,2.132,34.485,34.485,0,0,1-7.135.744Z" transform="translate(-963.32 -537.896)" fill="#304c9f"/>
  <path id="Path_17427" data-name="Path 17427" d="M2263.59,2898.357v0Z" transform="translate(-2223.236 -2829.732)" fill="#fff"/>
  <path id="Path_17428" data-name="Path 17428" d="M2232.193,2867.814a.855.855,0,0,1-.855-.855v-5.518a.855.855,0,0,1,1.71,0v5.518A.855.855,0,0,1,2232.193,2867.814Z" transform="translate(-2191.839 -2798.334)" fill="#340577"/>
  <path id="Path_17429" data-name="Path 17429" d="M3045.611,2566.981,3042,2563.37Z" transform="translate(-2981.011 -2508.997)" fill="#fff"/>
  <path id="Path_17430" data-name="Path 17430" d="M3014.215,2536.437a.851.851,0,0,1-.6-.25l-3.611-3.611a.855.855,0,0,1,1.209-1.209l3.61,3.61a.855.855,0,0,1-.6,1.46Z" transform="translate(-2949.615 -2477.597)" fill="#304c9f"/>
  <path id="Path_17431" data-name="Path 17431" d="M1431.281,1013.185l2.318,2.318a.85.85,0,0,1,.145,1,17.22,17.22,0,0,0-1.122,2.711.85.85,0,0,1-.807.6h-3.279a1.588,1.588,0,0,0-1.588,1.588v6.118a1.588,1.588,0,0,0,1.588,1.588h3.279a.85.85,0,0,1,.807.6,17.215,17.215,0,0,0,1.122,2.711.85.85,0,0,1-.145,1l-2.318,2.318a1.588,1.588,0,0,0,0,2.246l4.326,4.326a1.588,1.588,0,0,0,2.245,0l2.318-2.318a.85.85,0,0,1,1-.145,17.2,17.2,0,0,0,2.711,1.122.85.85,0,0,1,.6.807v3.279a1.588,1.588,0,0,0,1.588,1.588h6.118a1.588,1.588,0,0,0,1.588-1.588v-3.279a.85.85,0,0,1,.6-.807,17.2,17.2,0,0,0,2.711-1.122.85.85,0,0,1,1,.145l2.318,2.318a1.588,1.588,0,0,0,2.246,0l4.326-4.326a1.588,1.588,0,0,0,0-2.246l-2.318-2.318a.85.85,0,0,1-.145-1,17.192,17.192,0,0,0,1.122-2.711.851.851,0,0,1,.807-.6h3.279a1.588,1.588,0,0,0,1.588-1.588V1021.4a1.588,1.588,0,0,0-1.588-1.588h-3.279a.85.85,0,0,1-.807-.6,17.2,17.2,0,0,0-1.122-2.711.85.85,0,0,1,.145-1l2.318-2.318a1.588,1.588,0,0,0,0-2.246l-4.326-4.326a1.588,1.588,0,0,0-2.246,0l-2.318,2.318a.85.85,0,0,1-1,.145,17.19,17.19,0,0,0-2.711-1.122.851.851,0,0,1-.6-.807v-3.279a1.588,1.588,0,0,0-1.588-1.588h-6.118a1.588,1.588,0,0,0-1.588,1.588v3.279a.85.85,0,0,1-.6.807,17.2,17.2,0,0,0-2.711,1.122.85.85,0,0,1-1-.145l-2.318-2.318a1.588,1.588,0,0,0-2.245,0l-4.326,4.326A1.588,1.588,0,0,0,1431.281,1013.185Z" transform="translate(-1408.772 -989.289)" fill="#ffc5a0"/>
  <path id="Path_17432" data-name="Path 17432" d="M1420.787,570.438h-6.118a2.446,2.446,0,0,1-2.443-2.443v-3.269l-.005,0a18.122,18.122,0,0,1-2.845-1.178l-.006,0-2.311,2.311a2.443,2.443,0,0,1-3.455,0l-4.326-4.326a2.443,2.443,0,0,1,0-3.455l2.311-2.311,0-.006a18.129,18.129,0,0,1-1.178-2.845l0-.006h-3.269a2.446,2.446,0,0,1-2.443-2.443v-6.118a2.446,2.446,0,0,1,2.443-2.443h3.269l0-.006a18.125,18.125,0,0,1,1.178-2.845l0-.006-2.311-2.311a2.443,2.443,0,0,1,0-3.455l4.326-4.326a2.446,2.446,0,0,1,3.455,0l2.311,2.311.006,0a18.117,18.117,0,0,1,2.845-1.178l.006,0v-3.269a2.446,2.446,0,0,1,2.443-2.443h6.118a2.446,2.446,0,0,1,2.443,2.443v3.269l.006,0a18.111,18.111,0,0,1,2.845,1.178l.006,0,2.311-2.311a2.443,2.443,0,0,1,3.455,0l4.326,4.326a2.443,2.443,0,0,1,0,3.455l-2.311,2.311,0,.006a18.113,18.113,0,0,1,1.178,2.845l0,.006h3.269a2.446,2.446,0,0,1,2.443,2.443v6.118a2.446,2.446,0,0,1-2.443,2.443h-3.269l0,.006a18.116,18.116,0,0,1-1.178,2.845l0,.006,2.311,2.311a2.443,2.443,0,0,1,0,3.455l-4.326,4.326a2.443,2.443,0,0,1-3.455,0l-2.311-2.311-.006,0a18.11,18.11,0,0,1-2.845,1.178l-.006,0V568A2.446,2.446,0,0,1,1420.787,570.438Zm-11.423-8.606a1.731,1.731,0,0,1,.8.2,16.412,16.412,0,0,0,2.576,1.066,1.7,1.7,0,0,1,1.2,1.622V568a.734.734,0,0,0,.733.733h6.118a.734.734,0,0,0,.733-.733v-3.279a1.7,1.7,0,0,1,1.2-1.622,16.407,16.407,0,0,0,2.576-1.066,1.7,1.7,0,0,1,1.994.3l2.318,2.318a.733.733,0,0,0,1.036,0l4.326-4.326a.734.734,0,0,0,0-1.037l-2.318-2.318a1.7,1.7,0,0,1-.3-1.994,16.407,16.407,0,0,0,1.066-2.576,1.7,1.7,0,0,1,1.622-1.2h3.279a.734.734,0,0,0,.733-.733v-6.118a.734.734,0,0,0-.733-.733h-3.279a1.7,1.7,0,0,1-1.622-1.2,16.409,16.409,0,0,0-1.066-2.576,1.7,1.7,0,0,1,.3-1.994l2.318-2.318a.733.733,0,0,0,0-1.037l-4.326-4.326a.733.733,0,0,0-1.036,0l-2.318,2.318a1.7,1.7,0,0,1-1.994.3,16.4,16.4,0,0,0-2.576-1.066,1.7,1.7,0,0,1-1.2-1.622v-3.279a.734.734,0,0,0-.733-.733h-6.118a.734.734,0,0,0-.733.733v3.279a1.7,1.7,0,0,1-1.2,1.622,16.4,16.4,0,0,0-2.576,1.066,1.7,1.7,0,0,1-1.994-.3l-2.318-2.318a.734.734,0,0,0-1.037,0l-4.326,4.326a.734.734,0,0,0,0,1.037l2.318,2.318a1.7,1.7,0,0,1,.3,1.994,16.4,16.4,0,0,0-1.066,2.576,1.7,1.7,0,0,1-1.622,1.2h-3.279a.734.734,0,0,0-.733.733v6.118a.734.734,0,0,0,.733.733h3.279a1.7,1.7,0,0,1,1.622,1.2,16.4,16.4,0,0,0,1.066,2.576,1.7,1.7,0,0,1-.3,1.994l-2.318,2.318a.734.734,0,0,0,0,1.037l4.326,4.326a.734.734,0,0,0,1.036,0l2.318-2.318a1.689,1.689,0,0,1,1.2-.5Zm24.5-6.064Zm1.186-2.865ZM1400.4,552.9ZM1435.052,541.907Zm-33.457-2.853h0ZM1433.866,539.041Zm-3.546-16.162a.855.855,0,0,1-.055-1.708l7.967-.524-1.224-7.417a.855.855,0,0,1,1.687-.278l1.377,8.348a.855.855,0,0,1-.787.992l-8.908.586Z" transform="translate(-1377.373 -512.235)" fill="#304c9f"/>
  <path id="Path_17433" data-name="Path 17433" d="M2263.59,570.848v0Z" transform="translate(-2223.236 -569.294)" fill="#fff"/>
  <path id="Path_17434" data-name="Path 17434" d="M2232.193,545.411a.855.855,0,0,1-.855-.855V539.45a.855.855,0,1,1,1.71,0v5.106A.855.855,0,0,1,2232.193,545.411Z" transform="translate(-2191.839 -537.896)" fill="#304c9f"/>
  <path id="Path_17435" data-name="Path 17435" d="M1000.7,1830.7h0Z" transform="translate(-993.824 -1795.749)" fill="#fff"/>
  <path id="Path_17436" data-name="Path 17436" d="M975.492,1800.156H969.3a.855.855,0,0,1,0-1.71h6.189a.855.855,0,0,1,0,1.71Z" transform="translate(-962.426 -1764.35)" fill="#304c9f"/>
  <path id="Path_17437" data-name="Path 17437" d="M2262.75,2890.126v0Z" transform="translate(-2222.418 -2821.72)" fill="#fff"/>
  <path id="Path_17438" data-name="Path 17438" d="M2231.353,2859.583a.855.855,0,0,1-.855-.855v-5.518a.855.855,0,0,1,1.71,0v5.518A.855.855,0,0,1,2231.353,2859.583Z" transform="translate(-2191.021 -2790.321)" fill="#304c9f"/>
  <path id="Path_17439" data-name="Path 17439" d="M1357.93,945.982l3.611,3.61Z" transform="translate(-1341.584 -934.484)" fill="#fff"/>
  <path id="Path_17440" data-name="Path 17440" d="M1330.135,919.046a.853.853,0,0,1-.6-.25l-3.61-3.611a.855.855,0,0,1,1.209-1.209l3.611,3.61a.855.855,0,0,1-.6,1.46Z" transform="translate(-1310.179 -903.083)" fill="#304c9f"/>
  <path id="Path_17441" data-name="Path 17441" d="M1348.14,2558.752l3.611-3.611Z" transform="translate(-1332.053 -2500.986)" fill="#fff"/>
  <path id="Path_17442" data-name="Path 17442" d="M1316.744,1466.615a.855.855,0,0,1-.6-1.46l3.61-3.611a.855.855,0,0,1,1.209,1.209l-3.61,3.61A.852.852,0,0,1,1316.744,1466.615Zm32.436-22.6h-8.169a.855.855,0,0,1-.855-.855v-9.922a.855.855,0,0,1,1.71,0v9.067h7.313a.855.855,0,1,1,0,1.71Z" transform="translate(-1300.657 -1407.994)" fill="#304c9f"/>
  <ellipse id="Ellipse_218" data-name="Ellipse 218" cx="20.768" cy="20.768" rx="20.768" ry="20.768" transform="translate(0.855 36.486)" fill="#d5e0ff"/>
  <path id="Path_17443" data-name="Path 17443" d="M762.92,1899.619a21.559,21.559,0,1,1,8.417-1.7A21.49,21.49,0,0,1,762.92,1899.619Zm0-41.536A19.913,19.913,0,1,0,782.833,1878,19.936,19.936,0,0,0,762.92,1858.083Z" transform="translate(-741.297 -1820.741)" fill="#304c9f"/>
  <path id="Path_17452" data-name="Path 17452" d="M1489.26,3124.23h0Z" transform="translate(-1469.432 -3054.989)" fill="#fff"/>
  <path id="Path_17454" data-name="Path 17454" d="M1697.581,2875.258l-1.963-2.833Z" transform="translate(-1670.32 -2809.859)" fill="#fff"/>
  <path id="Path_17456" data-name="Path 17456" d="M1344.33,2875.258l1.963-2.833Z" transform="translate(-1328.344 -2809.859)" fill="#fff"/>
  <g id="Group_25056" data-name="Group 25056" transform="translate(9.954 43.974)">
    <path id="Path_17458" data-name="Path 17458" d="M8.831,280.6a4.176,4.176,0,0,0-4.2,4.2v1.844H7.29V284.8a1.512,1.512,0,0,1,1.542-1.543h2.612a1.512,1.512,0,0,1,1.543,1.543v1.844h2.658V284.8a4.22,4.22,0,0,0-4.2-4.2Z" transform="translate(1.255 -280.596)" fill="#f47320"/>
    <path id="Path_17459" data-name="Path 17459" d="M4.631,283.72v1.56H7.289v-1.559Zm8.355,0v1.56h2.658v-1.559Z" transform="translate(1.255 -279.236)" fill="#c74e00"/>
    <path id="Path_17460" data-name="Path 17460" d="M2.428,4.542H21.417a1.894,1.894,0,0,1,1.9,1.9V19.669a1.895,1.895,0,0,1-1.9,1.9H2.428a1.895,1.895,0,0,1-1.9-1.9V6.441a1.9,1.9,0,0,1,1.9-1.9Z" transform="translate(-0.53 1.218)" fill="#f47320"/>
    <path id="Path_17461" data-name="Path 17461" d="M2.428,4.542a1.895,1.895,0,0,0-1.9,1.9v3.73A5.56,5.56,0,0,0,6.1,15.743H17.744a5.56,5.56,0,0,0,5.572-5.572V6.44a1.895,1.895,0,0,0-1.9-1.9Z" transform="translate(-0.53 1.218)" fill="#304c9f"/>
    <path id="Path_17462" data-name="Path 17462" d="M7.342,4.542v10.3h3.229V4.542Z" transform="translate(2.435 1.218)" fill="#f47320"/>
    <path id="Path_17463" data-name="Path 17463" d="M21.656,288.53a5.571,5.571,0,0,1-5.572,5.573H12.306v1.315a.994.994,0,0,1-1,1H9.77a.761.761,0,0,0,.643,1.164h.909a2.057,2.057,0,0,0,2.166-2.256H16.2a6.8,6.8,0,0,0,5.454-2.859ZM4.493,294.1a.761.761,0,0,0,.623,1.219H8.223V294.1Z" transform="translate(1.128 -277.142)"/>
    <path id="Path_17464" data-name="Path 17464" d="M8.042,11.112h2.087a1,1,0,0,1,1,1V14.2a.994.994,0,0,1-1,1H8.042a.995.995,0,0,1-1-1V12.11A1,1,0,0,1,8.042,11.112Z" transform="translate(2.307 4.078)" fill="#d1dcff"/>
  </g>
</svg>
