<svg xmlns="http://www.w3.org/2000/svg" width="214.506" height="139.447" viewBox="0 0 214.506 139.447">
  <g id="Group_27066" data-name="Group 27066" transform="translate(-58.023 -51.199)">
    <g id="Group_27024" data-name="Group 27024" transform="translate(201.493 87.56)">
      <circle id="Ellipse_293" data-name="Ellipse 293" cx="8.542" cy="8.542" r="8.542" transform="translate(0.557 0.558)" fill="#ffb3dd"/>
      <path id="Path_1069" data-name="Path 1069" d="M2122.359,590.279a9.1,9.1,0,1,1,9.1-9.1A9.109,9.109,0,0,1,2122.359,590.279Zm0-17.083a7.984,7.984,0,1,0,7.983,7.984A7.993,7.993,0,0,0,2122.359,573.2Z" transform="translate(-2113.26 -572.08)" fill="#231f20"/>
    </g>
    <g id="Group_27025" data-name="Group 27025" transform="translate(219.536 91.477)">
      <path id="Path_1070" data-name="Path 1070" d="M2390.853,674.836c.622-.754,9.529-17.32,13.485-24.7a12.231,12.231,0,0,0,.849-9.807c-1.552-4.34-4.741-4.963-9.007-3.137l-16.45,32.332Z" transform="translate(-2379.171 -635.671)" fill="#ffc8bb"/>
      <path id="Path_1071" data-name="Path 1071" d="M2383.409,667.9a.554.554,0,0,1-.24-.054l-11.124-5.309a.557.557,0,0,1-.256-.756l16.45-32.332a.555.555,0,0,1,.278-.26c2.628-1.125,4.733-1.31,6.434-.568a6.455,6.455,0,0,1,3.318,4.03,12.719,12.719,0,0,1-.883,10.259c-5.848,10.905-12.944,24.058-13.546,24.787A.559.559,0,0,1,2383.409,667.9Zm-10.367-6.123,10.167,4.852c1.146-1.909,5.954-10.743,13.193-24.245a11.6,11.6,0,0,0,.816-9.356,5.332,5.332,0,0,0-2.714-3.383c-1.347-.588-3.151-.422-5.365.493Z" transform="translate(-2371.728 -628.18)" fill="#231f20"/>
    </g>
    <g id="Group_27026" data-name="Group 27026" transform="translate(222.862 84.822)">
      <path id="Path_1072" data-name="Path 1072" d="M2440.579,580.912c.446-.891,5.217-19.259,7.33-27.434a11.479,11.479,0,0,0-1.839-9.738c-2.847-3.814-6.383-3.6-10.373-.733l-8.328,35.608Z" transform="translate(-2426.812 -540.306)" fill="#ffc8bb"/>
      <path id="Path_1073" data-name="Path 1073" d="M2433.149,574.023a.566.566,0,0,1-.1-.008l-13.209-2.3a.557.557,0,0,1-.447-.676l8.328-35.608a.558.558,0,0,1,.218-.326c4.539-3.261,8.288-2.975,11.145.852a11.963,11.963,0,0,1,1.932,10.211c-3.125,12.089-6.939,26.681-7.371,27.544A.56.56,0,0,1,2433.149,574.023Zm-12.532-3.3,12.166,2.116c.663-2.094,3.273-11.921,7.156-26.944a10.853,10.853,0,0,0-1.747-9.265c-2.455-3.289-5.455-3.525-9.431-.734Z" transform="translate(-2419.382 -532.858)" fill="#231f20"/>
    </g>
    <g id="Group_27027" data-name="Group 27027" transform="translate(73.598 96.123)">
      <path id="Path_1074" data-name="Path 1074" d="M345.48,702.746c13.084-1.247,57.912,10.686,67.778,18.522,34.878,1.157,58.137,9.776,69.357,26.126a23.914,23.914,0,0,1,3.915,18.075l-5.71,30.6H289.12C304.05,756.126,309.725,704.385,345.48,702.746Z" transform="translate(-288.563 -702.103)" fill="#304c9f"/>
      <path id="Path_1075" data-name="Path 1075" d="M473.4,789.26H281.7a.557.557,0,0,1-.522-.753c3.291-8.805,6.168-18.3,8.951-27.491,5.078-16.768,9.875-32.607,17.033-44.85,3.867-6.614,8.056-11.531,12.807-15.031a31.983,31.983,0,0,1,18.052-6.311c6.11-.576,19.953,1.728,35.28,5.873,12.212,3.3,27.163,8.346,32.737,12.654,17.39.591,32.041,3.079,43.546,7.395,11.665,4.376,20.437,10.758,26.071,18.967a24.549,24.549,0,0,1,4,18.493l-5.709,30.6A.559.559,0,0,1,473.4,789.26Zm-190.9-1.115H472.934L478.559,758a23.441,23.441,0,0,0-3.827-17.658c-11-16.024-34.183-24.732-68.916-25.884a.556.556,0,0,1-.328-.121c-4.452-3.536-16.9-8.351-32.482-12.565-15.22-4.117-28.919-6.408-34.9-5.838l-.027,0c-12.483.572-22,7.179-29.962,20.791-7.091,12.129-11.869,27.907-16.928,44.61C288.483,770.282,285.685,779.52,282.5,788.145Zm55.558-92.764h0Z" transform="translate(-281.138 -694.737)" fill="#231f20"/>
    </g>
    <g id="Group_27028" data-name="Group 27028" transform="translate(168.628 104.206)">
      <path id="Path_1076" data-name="Path 1076" d="M1650.45,818.52l35.085,1.247.1,5.112a13.916,13.916,0,0,1-5.067,11.063c-7.948,6.5-21.778,6.944-27.266-1.9a13.562,13.562,0,0,1-1.935-5.881Z" transform="translate(-1649.892 -817.962)" fill="#ffc8bb"/>
      <path id="Path_1077" data-name="Path 1077" d="M1659.365,833.885a20.749,20.749,0,0,1-3.4-.276,14.809,14.809,0,0,1-10.562-6.7,14.2,14.2,0,0,1-2.017-6.123l-.919-9.645a.558.558,0,0,1,.149-.436.565.565,0,0,1,.426-.175l35.085,1.247a.557.557,0,0,1,.537.546l.1,5.112a14.377,14.377,0,0,1-5.271,11.506A22.7,22.7,0,0,1,1659.365,833.885Zm-15.729-22.22.859,9.013a13.074,13.074,0,0,0,1.854,5.64,13.857,13.857,0,0,0,9.8,6.191,21.761,21.761,0,0,0,16.643-4.433,13.449,13.449,0,0,0,4.862-10.62l-.091-4.585Z" transform="translate(-1642.463 -810.527)" fill="#231f20"/>
    </g>
    <g id="Group_27029" data-name="Group 27029" transform="translate(145.915 122.481)">
      <path id="Path_1078" data-name="Path 1078" d="M1364.348,1083.783l-2.016,5.27-22.292,58.307h-14.96l25.225-63.312,1.489-3.738,5.242,1.45,1.17,1.756.087.435,3.865-.773Z" transform="translate(-1324.522 -1079.752)" fill="#304c9f"/>
      <path id="Path_1079" data-name="Path 1079" d="M1332.61,1140.486h-14.96a.558.558,0,0,1-.518-.765l25.225-63.311,1.489-3.738a.558.558,0,0,1,.667-.331l5.241,1.45a.559.559,0,0,1,.316.228l1.17,1.756a.606.606,0,0,1,.049.09l3.33-.666a.555.555,0,0,1,.258.009l2.191.605a.558.558,0,0,1,.372.737l-2.016,5.27-22.292,58.306A.558.558,0,0,1,1332.61,1140.486Zm-14.138-1.115h13.754l22.155-57.948,1.8-4.7-1.471-.407-3.734.747a.557.557,0,0,1-.656-.437l-.066-.327-.994-1.492-4.56-1.261-1.3,3.274Z" transform="translate(-1317.092 -1072.321)" fill="#231f20"/>
    </g>
    <g id="Group_27030" data-name="Group 27030" transform="translate(192.555 86.586)">
      <path id="Path_1080" data-name="Path 1080" d="M2012.716,571.9c1.563-2.706,3.6-6.006,6.712-5.764a5.131,5.131,0,0,1,4.14,3.65,12.9,12.9,0,0,1,.218,5.792,59.226,59.226,0,0,1-6.724,20.625,14.288,14.288,0,0,1-10.1,8.375c-9.878,3.037-17.936,1.466-11.259-9.536C2000.687,586.833,2007.9,580.228,2012.716,571.9Z" transform="translate(-1992.697 -565.561)" fill="#ffc8bb"/>
      <path id="Path_1081" data-name="Path 1081" d="M1991.773,599.059c-2.66,0-4.62-.681-5.672-2.032-1.583-2.032-1.027-5.3,1.653-9.718a101.109,101.109,0,0,1,8.277-11.175,93.084,93.084,0,0,0,8.726-11.957c1.453-2.517,3.652-6.32,7.238-6.041a5.7,5.7,0,0,1,4.625,4.028,13.474,13.474,0,0,1,.243,6.042,59.4,59.4,0,0,1-6.787,20.82,18.327,18.327,0,0,1-4.632,5.95,18.107,18.107,0,0,1-5.79,2.69A27.586,27.586,0,0,1,1991.773,599.059Zm19.859-39.821c-2.517,0-4.3,2.709-5.909,5.5h0a93.924,93.924,0,0,1-8.828,12.1,100.21,100.21,0,0,0-8.188,11.049c-2.382,3.923-2.979,6.847-1.727,8.454,1.572,2.019,6.3,2.118,12.345.26a17.116,17.116,0,0,0,5.441-2.511,17.328,17.328,0,0,0,4.33-5.6,58.261,58.261,0,0,0,6.66-20.43,12.18,12.18,0,0,0-.193-5.541,4.582,4.582,0,0,0-3.655-3.272C2011.816,559.241,2011.724,559.238,2011.632,559.238Zm-6.392,5.219h0Z" transform="translate(-1985.221 -558.122)" fill="#231f20"/>
    </g>
    <g id="Group_27031" data-name="Group 27031" transform="translate(156.632 108.057)">
      <path id="Path_1082" data-name="Path 1082" d="M1501.462,891.339l-8.058.558-13.28.921a1.46,1.46,0,0,1-1.268-2.28l11.162-16.859,10.25,15.816Z" transform="translate(-1478.05 -873.123)" fill="#304c9f"/>
      <path id="Path_1083" data-name="Path 1083" d="M1472.6,885.953a1.957,1.957,0,0,1-1.695-.985,2.037,2.037,0,0,1,.06-2.163l11.162-16.859a.541.541,0,0,1,.468-.25.556.556,0,0,1,.465.254l11.443,17.659a.558.558,0,0,1-.429.859l-21.337,1.48C1472.691,885.951,1472.646,885.953,1472.6,885.953Zm9.987-18.682L1471.9,883.419a.917.917,0,0,0-.027.986.84.84,0,0,0,.791.429l20.394-1.415Z" transform="translate(-1470.624 -865.695)" fill="#231f20"/>
    </g>
    <g id="Group_27032" data-name="Group 27032" transform="translate(178.772 121.423)">
      <path id="Path_1084" data-name="Path 1084" d="M1815.593,1065.15l-3.621,19.1a1.392,1.392,0,0,1-2.417.657l-9.4-10.759-4.4-5.031.356-.071,3.865-.773Z" transform="translate(-1795.203 -1064.592)" fill="#304c9f"/>
      <path id="Path_1085" data-name="Path 1085" d="M1803.174,1078.512a1.935,1.935,0,0,1-1.462-.668l-13.8-15.79a.558.558,0,0,1,.311-.914l19.833-3.968a.558.558,0,0,1,.658.651l-3.62,19.1a1.939,1.939,0,0,1-1.406,1.519A1.98,1.98,0,0,1,1803.174,1078.512Zm-13.784-16.467,13.162,15.065a.835.835,0,0,0,1.449-.394l3.467-18.287Z" transform="translate(-1787.78 -1057.161)" fill="#231f20"/>
    </g>
    <g id="Group_27033" data-name="Group 27033" transform="translate(150.203 78.211)">
      <circle id="Ellipse_294" data-name="Ellipse 294" cx="8.542" cy="8.542" r="8.542" transform="translate(0.558 0.558)" fill="#ffc8bb"/>
      <path id="Path_1086" data-name="Path 1086" d="M1387.619,456.349a9.1,9.1,0,1,1,9.1-9.1A9.11,9.11,0,0,1,1387.619,456.349Zm0-17.083a7.984,7.984,0,1,0,7.984,7.984A7.993,7.993,0,0,0,1387.619,439.266Z" transform="translate(-1378.52 -438.15)" fill="#231f20"/>
    </g>
    <g id="Group_27034" data-name="Group 27034" transform="translate(160.376 67.008)">
      <path id="Path_1087" data-name="Path 1087" d="M1533.732,278.374a92.638,92.638,0,0,0-7.568,13,2.41,2.41,0,0,1-.739,1.031c-.357.237-.953-.306-1.165-.679a21.021,21.021,0,0,1,5.573-13.561C1530.944,276.975,1532.106,278.25,1533.732,278.374Z" transform="translate(-1524.26 -277.662)" fill="#231f20"/>
    </g>
    <g id="Group_27035" data-name="Group 27035" transform="translate(159.189 62.355)">
      <circle id="Ellipse_295" data-name="Ellipse 295" cx="26.536" cy="26.536" r="26.536" transform="translate(0.557 0.556)" fill="#ffc8bb"/>
      <path id="Path_1088" data-name="Path 1088" d="M1534.343,265.187a27.093,27.093,0,1,1,27.094-27.093A27.124,27.124,0,0,1,1534.343,265.187Zm0-53.073a25.979,25.979,0,1,0,25.979,25.979A26.008,26.008,0,0,0,1534.343,212.114Z" transform="translate(-1507.25 -211)" fill="#231f20"/>
    </g>
    <g id="Group_27036" data-name="Group 27036" transform="translate(205.679 81.341)">
      <path id="Path_1089" data-name="Path 1089" d="M2173.236,491.382c-.024,1.686.341,3.7,1.888,4.369a3.2,3.2,0,0,0,3.632-1.259,8.679,8.679,0,0,0,1.333-3.883,11.505,11.505,0,0,0,.133-4.153,4.312,4.312,0,0,0-2.4-3.208C2173.444,481.493,2173.271,488.945,2173.236,491.382Z" transform="translate(-2173.235 -482.982)" fill="#231f20"/>
    </g>
    <g id="Group_27037" data-name="Group 27037" transform="translate(164.141 79.813)">
      <path id="Path_1090" data-name="Path 1090" d="M1590.874,466.771c-.3,1.215-1.512,2.062-3.154,2.4a9.459,9.459,0,0,1-4.1-.151,8.083,8.083,0,0,1-4.931-3.145,2.884,2.884,0,0,1-.438-2.219c.355-1.432,1.973-2.355,4.073-2.524a9.975,9.975,0,0,1,3.178.28C1588.99,462.269,1591.394,464.671,1590.874,466.771Z" transform="translate(-1578.184 -461.098)" fill="#fff"/>
    </g>
    <g id="Group_27038" data-name="Group 27038" transform="translate(186.936 84.623)">
      <path id="Path_1091" data-name="Path 1091" d="M1917.427,535.68c-.316,1.273-1.629,2.142-3.393,2.438a9.567,9.567,0,0,1-3.858-.194c-3.485-.862-5.89-3.264-5.37-5.364.355-1.432,1.971-2.355,4.07-2.523a9.992,9.992,0,0,1,3.181.28C1915.543,531.177,1917.947,533.58,1917.427,535.68Z" transform="translate(-1904.737 -530.008)" fill="#fff"/>
    </g>
    <g id="Group_27039" data-name="Group 27039" transform="translate(174.158 82.995)">
      <path id="Path_1092" data-name="Path 1092" d="M1723.881,519.913a.555.555,0,0,1-.441-.216,8.439,8.439,0,0,1-1.6-2.735,3.224,3.224,0,0,1,.779-3.328,2.932,2.932,0,0,1,2.433-.6,2.122,2.122,0,0,1,.41.135,64.49,64.49,0,0,1,2.089-6.137.557.557,0,1,1,1.036.412,63.37,63.37,0,0,0-2.29,6.891.558.558,0,0,1-1.05.077.567.567,0,0,0-.435-.29,1.854,1.854,0,0,0-1.454.345,2.168,2.168,0,0,0-.445,2.181,7.479,7.479,0,0,0,1.411,2.363.557.557,0,0,1-.442.9Z" transform="translate(-1721.685 -506.682)" fill="#231f20"/>
    </g>
    <g id="Group_27040" data-name="Group 27040" transform="translate(180.48 98.275)">
      <path id="Path_1093" data-name="Path 1093" d="M1814.961,729.592a4.788,4.788,0,0,1-2.433-.66.557.557,0,1,1,.567-.96,3.65,3.65,0,0,0,5.331-2.017.558.558,0,1,1,1.061.343,4.747,4.747,0,0,1-4.526,3.293Z" transform="translate(-1812.254 -725.569)" fill="#231f20"/>
    </g>
    <g id="Group_27041" data-name="Group 27041" transform="translate(164.141 79.843)">
      <path id="Path_1094" data-name="Path 1094" d="M1587.72,469.56a9.459,9.459,0,0,1-4.1-.151,8.082,8.082,0,0,1-4.931-3.146,2.884,2.884,0,0,1-.438-2.219c.354-1.432,1.973-2.355,4.073-2.524a13.667,13.667,0,0,1,3.909,2.18,5.944,5.944,0,0,1,1.09,1.093C1588.488,466.439,1588.615,468.414,1587.72,469.56Z" transform="translate(-1578.184 -461.52)" fill="#231f20"/>
    </g>
    <g id="Group_27042" data-name="Group 27042" transform="translate(186.936 84.652)">
      <path id="Path_1095" data-name="Path 1095" d="M1914.035,538.491a9.567,9.567,0,0,1-3.858-.194c-3.485-.862-5.89-3.264-5.37-5.364.355-1.432,1.971-2.355,4.07-2.523a13.75,13.75,0,0,1,3.754,2.125,5.947,5.947,0,0,1,1.09,1.1C1914.916,535.322,1915.016,537.366,1914.035,538.491Z" transform="translate(-1904.737 -530.41)" fill="#231f20"/>
    </g>
    <g id="Group_27043" data-name="Group 27043" transform="translate(192.107 78.354)">
      <path id="Path_1096" data-name="Path 1096" d="M1986.341,446.351a1.878,1.878,0,0,0,1.935-.743c1.225-2.128-5.917-5.342-7.444-5.405-3.473-.144-1.789,2.832-.011,3.964A15.227,15.227,0,0,0,1986.341,446.351Z" transform="translate(-1978.81 -440.198)" fill="#231f20"/>
    </g>
    <g id="Group_27044" data-name="Group 27044" transform="translate(169.157 73.351)">
      <path id="Path_1097" data-name="Path 1097" d="M1657.581,374.681a1.878,1.878,0,0,0,1.935-.743c1.225-2.128-5.918-5.342-7.444-5.405-3.473-.144-1.789,2.832-.011,3.964A15.214,15.214,0,0,0,1657.581,374.681Z" transform="translate(-1650.05 -368.528)" fill="#231f20"/>
    </g>
    <g id="Group_27045" data-name="Group 27045" transform="translate(162.669 51.199)">
      <path id="Path_1098" data-name="Path 1098" d="M1608.041,90.4l-.01.053c-4.6-.008-8.208-5.35-10.549-8.72a56.163,56.163,0,0,1-6.4-12.532c-5.9,3.9-15.817,3.86-22.49,2.519-3.194-.642-15.067-4.881-10.423-10.056a5.222,5.222,0,0,1,2.678-1.451c3-.743,6.136.022,9.127.784a6.179,6.179,0,0,1-4.174-4.207A4.2,4.2,0,0,1,1569,51.5a10.418,10.418,0,0,1,4.12-.182c8.28.943,15.782,5.5,21.928,11.125a15.047,15.047,0,0,1,.711-7.025c.209-.586.568-1.247,1.188-1.3a1.179,1.179,0,0,1,1.081.686,3.225,3.225,0,0,1,.273,1.321,30.8,30.8,0,0,1-.544,7.7c1.045-1.711,2.286-3,3.475-4.61.916-1.243,2.082-2.566,3.624-2.609a1.568,1.568,0,0,1,1.059.311,1.494,1.494,0,0,1,.365,1.546,4.209,4.209,0,0,1-.863,1.427,68.733,68.733,0,0,1-4.781,5.308c3.742,2.614,5.841,6.856,6.736,11.332C1608.232,80.808,1608.893,86.08,1608.041,90.4Z" transform="translate(-1557.109 -51.199)" fill="#231f20"/>
    </g>
    <g id="Group_27046" data-name="Group 27046" transform="translate(165.95 83.554)">
      <path id="Path_1099" data-name="Path 1099" d="M1684.134,555.273c-.914-15.237-2.9-24.49-5.915-28.054-5.912-6.505-11.374-4.97-16.757-2.049-1.166.632-3.078,3.2-4.158,4.247a38.03,38.03,0,0,0-4.057,4.928c-2.044,2.821-4.847,6.917-3.58,10.6,1.795,5.209,7.926,4.474,11.036.94l6.318-7.179-.574,9.189c-9.488,1.381-17.728,3.816-24.208,7.735a24.274,24.274,0,0,0-11.6,20.238l-.084,3.615-18.432,49.152h48.31l14.089-53.6A22.348,22.348,0,0,0,1684.134,555.273Z" transform="translate(-1611.561 -522.101)" fill="#ffc8bb"/>
      <path id="Path_1100" data-name="Path 1100" d="M1652.978,621.778h-48.31a.558.558,0,0,1-.522-.753l18.4-49.064.082-3.52a25.225,25.225,0,0,1,3.291-11.879,24.533,24.533,0,0,1,8.581-8.823c6.145-3.716,13.989-6.25,23.969-7.744l.445-7.111-5.24,5.955a8.434,8.434,0,0,1-7.611,2.879,5.748,5.748,0,0,1-4.371-4c-1.416-4.111,1.883-8.662,3.656-11.108a38.727,38.727,0,0,1,4.119-5c.353-.343.815-.873,1.3-1.435a14.465,14.465,0,0,1,2.979-2.9c5.381-2.919,11.217-4.678,17.436,2.163l.013.015c3.145,3.723,5.123,13.006,6.045,28.381a22.992,22.992,0,0,1-9.685,20.134l-14.038,53.4A.559.559,0,0,1,1652.978,621.778Zm-47.505-1.116h47.075l13.981-53.186a.559.559,0,0,1,.224-.318,21.864,21.864,0,0,0,9.374-19.266c-.894-14.9-2.838-24.231-5.778-27.72-5.381-5.916-10.318-5.048-16.072-1.926a14.862,14.862,0,0,0-2.669,2.655c-.5.579-.982,1.127-1.367,1.5a37.761,37.761,0,0,0-3.994,4.855c-1.653,2.281-4.731,6.528-3.5,10.09a4.589,4.589,0,0,0,3.533,3.274,7.292,7.292,0,0,0,6.557-2.521l6.318-7.179a.558.558,0,0,1,.975.4l-.574,9.189a.559.559,0,0,1-.476.517c-10.043,1.462-17.894,3.968-24,7.661a23.583,23.583,0,0,0-11.334,19.773l-.084,3.615a.544.544,0,0,1-.036.183Z" transform="translate(-1604.111 -514.686)" fill="#231f20"/>
    </g>
    <g id="Group_27047" data-name="Group 27047" transform="translate(163.279 147.858)">
      <path id="Path_1101" data-name="Path 1101" d="M1639.01,1443.84l0,.02-4.781,19.622-5.3,21.764H1573.83l8.307-21.764,7.5-19.642Z" transform="translate(-1573.272 -1443.282)" fill="#304c9f"/>
      <path id="Path_1102" data-name="Path 1102" d="M1621.494,1478.371H1566.4a.558.558,0,0,1-.521-.757l15.8-41.405a.557.557,0,0,1,.521-.359h49.375a.558.558,0,0,1,.554.628l0,.02c0,.02-.006.041-.011.062l-10.084,41.386A.558.558,0,0,1,1621.494,1478.371Zm-54.284-1.115h53.846l9.816-40.29h-48.283Z" transform="translate(-1565.843 -1435.85)" fill="#231f20"/>
    </g>
    <g id="Group_27048" data-name="Group 27048" transform="translate(167.554 147.858)">
      <path id="Path_1103" data-name="Path 1103" d="M1695.965,1443.83l0,.02-2.727,19.749H1635.06l10.105-19.769Z" transform="translate(-1634.503 -1443.273)" fill="#304c9f"/>
      <path id="Path_1104" data-name="Path 1104" d="M1685.81,1456.734h-58.175a.557.557,0,0,1-.5-.811l10.105-19.769a.557.557,0,0,1,.5-.3h50.8a.558.558,0,0,1,.549.658v.008l-2.725,19.737A.557.557,0,0,1,1685.81,1456.734Zm-57.263-1.115h56.777l2.575-18.653h-49.818Z" transform="translate(-1627.078 -1435.85)" fill="#231f20"/>
    </g>
    <g id="Group_27049" data-name="Group 27049" transform="translate(58.095 100.158)">
      <path id="Path_1105" data-name="Path 1105" d="M132.571,787.061c0-5.547,1.863-11.143,3.057-16.488.949-4.251.332-8.352-4.4-9.124a6.578,6.578,0,0,0-5.337,1.56,13.059,13.059,0,0,0-3.072,4.836c-1.772,4.15-2.808,12.47-6.964,14.763l-.008,0-4.672-21.732c-17.316-2.39-31.362,9.533-44.126,27.07.889,16.148,4.477,27.8,13.559,32.786l4.227,29.208h48.935l-11.855-40.207C129.318,805.592,132.27,797.5,132.571,787.061Z" transform="translate(-66.492 -760.015)" fill="#ffc8bb"/>
      <path id="Path_1106" data-name="Path 1106" d="M126.337,843.029H77.4a.558.558,0,0,1-.552-.477l-4.187-28.935c-4.386-2.488-7.613-6.534-9.86-12.359-2.042-5.291-3.266-12.078-3.744-20.749a.559.559,0,0,1,.106-.359c7.081-9.728,13.785-16.644,20.5-21.143,7.9-5.293,15.8-7.305,24.157-6.151a.558.558,0,0,1,.469.435l4.5,20.933c2.346-1.838,3.556-5.976,4.633-9.663a41.886,41.886,0,0,1,1.453-4.408,13.621,13.621,0,0,1,3.217-5.037,7.151,7.151,0,0,1,5.794-1.691,5.905,5.905,0,0,1,4.154,2.433c1.152,1.7,1.393,4.25.7,7.363-.3,1.326-.639,2.691-.971,4.011-1.019,4.054-2.073,8.246-2.073,12.356v.016c-.329,11.426-3.783,18.931-10.554,22.925l11.731,39.785a.557.557,0,0,1-.534.714Zm-48.452-1.115h47.706l-11.645-39.492a.558.558,0,0,1,.262-.644c6.653-3.726,10.045-10.988,10.371-22.2,0-4.246,1.072-8.5,2.106-12.62.33-1.313.672-2.671.964-3.982.437-1.957.7-4.672-.533-6.5a4.836,4.836,0,0,0-3.41-1.957,6.022,6.022,0,0,0-4.88,1.43,12.334,12.334,0,0,0-2.926,4.636,41.47,41.47,0,0,0-1.408,4.283c-1.233,4.219-2.631,9-5.8,10.75l-.028.015a.557.557,0,0,1-.794-.381l-4.59-21.348c-14.73-1.855-28.44,6.653-43.1,26.737.991,17.5,5.207,27.71,13.26,32.129a.558.558,0,0,1,.283.409Zm47.252-62.326h0Z" transform="translate(-59.058 -752.541)" fill="#231f20"/>
    </g>
    <g id="Group_27050" data-name="Group 27050" transform="translate(68.983 170.03)">
      <path id="Path_1107" data-name="Path 1107" d="M223.01,1761.46h59.837l6.678,19.5h-63.31Z" transform="translate(-222.453 -1760.902)" fill="#304c9f"/>
      <path id="Path_1108" data-name="Path 1108" d="M282.1,1774.086h-63.31a.557.557,0,0,1-.55-.467l-3.206-19.5a.558.558,0,0,1,.55-.649h59.837a.559.559,0,0,1,.528.377l6.678,19.5a.558.558,0,0,1-.528.739Zm-62.837-1.115h62.056l-6.3-18.385H216.239Z" transform="translate(-215.025 -1753.47)" fill="#304c9f"/>
    </g>
    <g id="Group_27051" data-name="Group 27051" transform="translate(82.18 124.971)">
      <path id="Path_1109" data-name="Path 1109" d="M414.149,1136.271a.557.557,0,0,1-.472-.26,27.6,27.6,0,0,0-9.323-9.09.557.557,0,0,1,.558-.965,28.509,28.509,0,0,1,8.637,7.88,27.742,27.742,0,0,1,4.572-14.176c2.914-4.55,6.68-8.09,10.322-11.513a.558.558,0,1,1,.764.813c-3.593,3.377-7.307,6.868-10.146,11.3a25.863,25.863,0,0,0-4.355,15.416.557.557,0,0,1-.556.595Z" transform="translate(-404.076 -1107.995)" fill="#231f20"/>
    </g>
    <g id="Group_27059" data-name="Group 27059" transform="translate(94.544 117.193)">
      <g id="Group_27052" data-name="Group 27052" transform="translate(15.898 0.443)">
        <rect id="Rectangle_3070" data-name="Rectangle 3070" width="38.674" height="2.866" transform="translate(0.737 0) rotate(14.91)" fill="#231f20"/>
      </g>
      <g id="Group_27053" data-name="Group 27053" transform="translate(0 60.15)">
        <rect id="Rectangle_3071" data-name="Rectangle 3071" width="38.674" height="2.866" transform="translate(0.737 0) rotate(14.91)" fill="#231f20"/>
      </g>
      <g id="Group_27054" data-name="Group 27054" transform="translate(0.65 0)">
        <path id="Path_1110" data-name="Path 1110" d="M627.58,1066.952a.546.546,0,0,1-.143-.019l-36.513-9.723a.558.558,0,0,1-.341-.815c5.456-9.546,10.927-16.621,16.724-21.629a23.038,23.038,0,0,1,7.415-4.2c.419-.149.935-.407,1.015-.792.087-.423-.315-1.086-1.1-1.819a21.107,21.107,0,0,1-3.747-4.519c-4.838-8.034-5-17.82-4.524-26.333a.558.558,0,0,1,.7-.507l36.513,9.723a.558.558,0,0,1,.355.789c-3.819,7.623-8.828,16.031-17.02,20.6a21.1,21.1,0,0,1-5.5,2.057c-1.048.244-1.728.619-1.862,1.03-.122.374.2.854.487,1.192a23.049,23.049,0,0,1,4.345,7.33c2.54,7.228,3.767,16.086,3.753,27.082a.554.554,0,0,1-.557.556Zm-35.667-10.632,35.109,9.349c-.04-10.531-1.247-19.038-3.689-25.986a21.931,21.931,0,0,0-4.14-6.972h0a2.343,2.343,0,0,1-.7-2.265c.27-.824,1.169-1.42,2.669-1.768a19.978,19.978,0,0,0,5.208-1.945c7.712-4.3,12.554-12.2,16.257-19.509l-35.186-9.37c-.42,8.179-.151,17.448,4.4,25.01a20.021,20.021,0,0,0,3.551,4.277c1.129,1.049,1.612,2.012,1.437,2.861a2.343,2.343,0,0,1-1.735,1.617,21.941,21.941,0,0,0-7.059,3.99C602.463,1040.424,597.185,1047.2,591.913,1056.32Z" transform="translate(-590.509 -996.58)" fill="#231f20"/>
      </g>
      <g id="Group_27055" data-name="Group 27055" transform="translate(18.844 12.523)">
        <path id="Path_1111" data-name="Path 1111" d="M851.14,1175.98l27.266,7.261c-5,5.862-10.79,10.255-18.067,11.869C854.59,1190.477,852.488,1183.474,851.14,1175.98Z" transform="translate(-851.14 -1175.98)" fill="#fff"/>
      </g>
      <g id="Group_27056" data-name="Group 27056" transform="translate(4.004 50.568)">
        <path id="Path_1112" data-name="Path 1112" d="M670.4,1737.874l-31.842-8.479,5.411-8.2,13.794-.219,12.395,7.193Z" transform="translate(-638.56 -1720.98)" fill="#fff"/>
      </g>
      <g id="Group_27058" data-name="Group 27058" transform="translate(22.578 31.244)">
        <g id="Group_27057" data-name="Group 27057">
          <path id="Path_1113" data-name="Path 1113" d="M905.348,1464.1a.634.634,0,0,1-.7-.79l4.977-18.691a.633.633,0,1,1,1.223.325l-4.977,18.691A.633.633,0,0,1,905.348,1464.1Z" transform="translate(-904.625 -1444.152)" fill="#fff"/>
        </g>
      </g>
    </g>
    <g id="Group_27060" data-name="Group 27060" transform="translate(81.726 89.239)">
      <path id="Path_1114" data-name="Path 1114" d="M418.912,621.7a20.346,20.346,0,0,0,8.352,10.722c2.871,1.821,6.91,2.782,9.493.57a6.806,6.806,0,0,0,1.842-6.4,20.052,20.052,0,0,0-2.8-6.343q-2.228-3.784-4.457-7.569c-1.834-3.114-3.875-6.418-7.186-7.864-3.866-1.689-8.578-.262-11.662,2.617s-4.782,6.949-5.853,11.03a15.138,15.138,0,0,1-.415,2.29c-.978,2.345-.449,3.46-.673,5.99C409.872,625.58,414.591,622.867,418.912,621.7Z" transform="translate(-404.994 -603.54)" fill="#ffc8bb"/>
      <path id="Path_1115" data-name="Path 1115" d="M425.628,627.429a11.892,11.892,0,0,1-6.077-1.944,20.772,20.772,0,0,1-8.41-10.513,57.359,57.359,0,0,0-6.1,2.355,52.751,52.751,0,0,1-6.756,2.549.557.557,0,0,1-.7-.587,19.231,19.231,0,0,0,.054-2.118,8.773,8.773,0,0,1,.66-4.038,3.529,3.529,0,0,0,.224-1.125,6.315,6.315,0,0,1,.166-1.091c1.329-5.064,3.3-8.759,6.012-11.3,3.526-3.292,8.455-4.385,12.266-2.72,3.335,1.457,5.344,4.527,7.444,8.093l4.456,7.569a20.7,20.7,0,0,1,2.87,6.524c.4,2.163.08,5.118-2.028,6.921A6.108,6.108,0,0,1,425.628,627.429ZM411.5,613.734a.558.558,0,0,1,.529.383,19.917,19.917,0,0,0,8.121,10.426c2.732,1.732,6.523,2.595,8.831.618,1.747-1.5,2-4.014,1.656-5.871a19.556,19.556,0,0,0-2.735-6.162l-4.456-7.569c-2-3.4-3.9-6.313-6.929-7.637-3.936-1.72-8.39.023-11.058,2.514-2.558,2.388-4.42,5.909-5.694,10.763a5.186,5.186,0,0,0-.134.905,4.535,4.535,0,0,1-.306,1.458,7.672,7.672,0,0,0-.574,3.593c.006.429.013.9-.008,1.428a60.179,60.179,0,0,0,5.855-2.28,52.907,52.907,0,0,1,6.755-2.549A.566.566,0,0,1,411.5,613.734Z" transform="translate(-397.579 -596.131)" fill="#231f20"/>
    </g>
    <g id="Group_27061" data-name="Group 27061" transform="translate(69.618 90.833)">
      <path id="Path_1116" data-name="Path 1116" d="M245.462,644.531a20.346,20.346,0,0,0,8.352,10.722c2.871,1.821,6.91,2.782,9.493.57a6.806,6.806,0,0,0,1.842-6.4,20.052,20.052,0,0,0-2.8-6.343q-2.228-3.784-4.457-7.569c-1.834-3.114-3.875-6.418-7.186-7.865-3.866-1.689-8.578-.262-11.662,2.617s-4.782,6.949-5.853,11.03a15.134,15.134,0,0,1-.415,2.29c-.978,2.345-.449,3.46-.673,5.99C236.422,648.409,241.141,645.7,245.462,644.531Z" transform="translate(-231.544 -626.37)" fill="#ffc8bb"/>
      <path id="Path_1117" data-name="Path 1117" d="M252.178,650.259a11.892,11.892,0,0,1-6.077-1.944,20.772,20.772,0,0,1-8.41-10.513,57.337,57.337,0,0,0-6.1,2.355,52.748,52.748,0,0,1-6.756,2.549.557.557,0,0,1-.7-.587,19.226,19.226,0,0,0,.054-2.118,8.773,8.773,0,0,1,.66-4.038,3.53,3.53,0,0,0,.224-1.125,6.322,6.322,0,0,1,.166-1.091c1.329-5.065,3.3-8.759,6.012-11.3,3.526-3.292,8.455-4.385,12.266-2.72,3.335,1.458,5.344,4.527,7.444,8.093l4.456,7.569a20.7,20.7,0,0,1,2.87,6.524c.4,2.163.08,5.118-2.028,6.921A6.111,6.111,0,0,1,252.178,650.259Zm-14.13-13.695a.558.558,0,0,1,.529.383,19.918,19.918,0,0,0,8.121,10.426c2.732,1.733,6.522,2.595,8.831.618,1.747-1.5,2-4.014,1.657-5.871a19.556,19.556,0,0,0-2.735-6.162l-4.456-7.569c-2-3.4-3.9-6.313-6.929-7.637-3.936-1.72-8.39.023-11.058,2.514-2.558,2.388-4.42,5.909-5.694,10.763a5.189,5.189,0,0,0-.134.905,4.534,4.534,0,0,1-.306,1.458,7.672,7.672,0,0,0-.574,3.593c.006.429.013.9-.008,1.427a60.175,60.175,0,0,0,5.855-2.28,52.9,52.9,0,0,1,6.755-2.549A.566.566,0,0,1,238.048,636.564Z" transform="translate(-224.129 -618.961)" fill="#231f20"/>
    </g>
    <g id="Group_27062" data-name="Group 27062" transform="translate(61.044 100.244)">
      <path id="Path_1118" data-name="Path 1118" d="M122.642,779.341a20.346,20.346,0,0,0,8.352,10.722c2.871,1.821,6.91,2.782,9.493.57a6.806,6.806,0,0,0,1.842-6.4,20.052,20.052,0,0,0-2.8-6.343q-2.228-3.784-4.457-7.569c-1.834-3.114-3.875-6.418-7.186-7.865-3.866-1.689-8.578-.262-11.662,2.617s-4.782,6.949-5.853,11.029a15.135,15.135,0,0,1-.415,2.29c-.978,2.345-.449,3.46-.673,5.99C113.6,783.22,118.321,780.507,122.642,779.341Z" transform="translate(-108.723 -761.18)" fill="#ffc8bb"/>
      <path id="Path_1119" data-name="Path 1119" d="M129.348,785.079a11.894,11.894,0,0,1-6.077-1.944,20.772,20.772,0,0,1-8.41-10.513,57.405,57.405,0,0,0-6.105,2.355A52.8,52.8,0,0,1,102,777.526a.557.557,0,0,1-.7-.587,19.218,19.218,0,0,0,.054-2.118,8.773,8.773,0,0,1,.66-4.038,3.549,3.549,0,0,0,.224-1.125,6.253,6.253,0,0,1,.166-1.091c1.329-5.065,3.3-8.759,6.012-11.3,3.526-3.292,8.455-4.385,12.266-2.72,3.335,1.457,5.344,4.527,7.444,8.093l4.456,7.569a20.7,20.7,0,0,1,2.87,6.524c.4,2.163.08,5.118-2.028,6.921A6.112,6.112,0,0,1,129.348,785.079Zm-14.129-13.7a.558.558,0,0,1,.529.383,19.918,19.918,0,0,0,8.121,10.426c2.732,1.732,6.522,2.595,8.831.618,1.747-1.5,2-4.014,1.657-5.872a19.556,19.556,0,0,0-2.735-6.162l-4.456-7.569c-2-3.4-3.9-6.313-6.929-7.637-3.936-1.719-8.39.023-11.058,2.514-2.558,2.388-4.42,5.908-5.694,10.763a5.256,5.256,0,0,0-.135.906,4.527,4.527,0,0,1-.306,1.457,7.671,7.671,0,0,0-.574,3.593c.006.429.013.9-.008,1.428a60.177,60.177,0,0,0,5.855-2.28,52.817,52.817,0,0,1,6.755-2.549A.577.577,0,0,1,115.219,771.384Z" transform="translate(-101.299 -753.781)" fill="#231f20"/>
    </g>
    <g id="Group_27063" data-name="Group 27063" transform="translate(58.424 107.922)">
      <path id="Path_1120" data-name="Path 1120" d="M73.586,879.037a17.539,17.539,0,0,0,6.135,9.305c2.109,1.581,5.076,2.414,6.973.495a6.636,6.636,0,0,0,1.353-5.551,19.125,19.125,0,0,0-2.059-5.505l-3.274-6.569c-1.347-2.7-2.846-5.57-5.279-6.826-2.84-1.466-6.3-.228-8.566,2.271s-3.513,6.031-4.3,9.572a15.35,15.35,0,0,1-.305,1.987c-.718,2.035-.329,3-.494,5.2C66.945,882.4,70.411,880.049,73.586,879.037Z" transform="translate(-63.77 -863.758)" fill="#ffb3dd"/>
    </g>
    <g id="Group_27064" data-name="Group 27064" transform="translate(58.973 108.558)">
      <path id="Path_1121" data-name="Path 1121" d="M81.222,888.157a17.539,17.539,0,0,0,6.135,9.305c2.109,1.58,5.076,2.414,6.973.495a6.636,6.636,0,0,0,1.353-5.551,19.125,19.125,0,0,0-2.059-5.505l-3.274-6.569c-1.347-2.7-2.846-5.57-5.279-6.826-2.84-1.466-6.3-.228-8.566,2.271s-3.513,6.031-4.3,9.572a15.348,15.348,0,0,1-.305,1.987c-.718,2.035.274,6.4.11,8.6C75.185,894.922,78.048,889.169,81.222,888.157Z" transform="translate(-71.637 -872.878)" fill="#ffc8bb"/>
    </g>
    <g id="Group_27065" data-name="Group 27065" transform="translate(58.023 107.362)">
      <path id="Path_1122" data-name="Path 1122" d="M78.625,883.065a8.054,8.054,0,0,1-4.584-1.728,17.978,17.978,0,0,1-6.338-9.6.558.558,0,0,1,1.074-.3,17.091,17.091,0,0,0,5.932,9.009c1.8,1.347,4.512,2.3,6.242.549a6.1,6.1,0,0,0,1.2-5.073,18.613,18.613,0,0,0-2.007-5.342l-3.274-6.569c-1.461-2.931-2.848-5.449-5.035-6.579-2.8-1.445-5.983.038-7.9,2.15-1.87,2.063-3.234,5.111-4.168,9.318a5.353,5.353,0,0,0-.1.787,4.532,4.532,0,0,1-.225,1.266,10,10,0,0,0-.23,3.913,18.889,18.889,0,0,1,.051,2.628.558.558,0,1,1-1.112-.083,17.856,17.856,0,0,0-.052-2.472,10.948,10.948,0,0,1,.29-4.358,3.573,3.573,0,0,0,.164-.977,6.358,6.358,0,0,1,.122-.946c.978-4.4,2.427-7.615,4.431-9.826,2.644-2.917,6.356-3.878,9.235-2.392,2.487,1.284,3.972,3.963,5.522,7.072l3.274,6.569a19.775,19.775,0,0,1,2.11,5.667c.3,1.879.054,4.45-1.507,6.03A4.244,4.244,0,0,1,78.625,883.065Z" transform="translate(-58.023 -855.747)" fill="#231f20"/>
    </g>
  </g>
</svg>
