<svg xmlns="http://www.w3.org/2000/svg" width="37.593" height="37.593" viewBox="0 0 37.593 37.593">
  <path id="Path_360" data-name="Path 360" d="M102.8,14a18.8,18.8,0,1,0,18.8,18.8A18.814,18.814,0,0,0,102.8,14Zm0,9.141c3.166,0,5.738,2.968,5.738,6.648s-2.572,6.688-5.738,6.688-5.738-2.968-5.738-6.648S99.631,23.141,102.8,23.141Zm0,25.009a15.386,15.386,0,0,1-11.318-4.986,7.027,7.027,0,0,1,4.036-5.342l1.781-.831a7.935,7.935,0,0,0,11,0l1.781.831a7.027,7.027,0,0,1,4.036,5.342A15.241,15.241,0,0,1,102.8,48.151Z" transform="translate(-84 -14)" fill="#afafaf"/>
</svg>
