<svg xmlns="http://www.w3.org/2000/svg" width="41.39" height="38.998" viewBox="0 0 41.39 38.998">
  <g id="Group_64" data-name="Group 64" transform="translate(3807.311 3582.5)">
    <path id="Path_347" data-name="Path 347" d="M509.972,384.59h-6.6a.171.171,0,0,0-.194.194v10.994h6.985V384.784a.207.207,0,0,0-.194-.194Zm-1.487,2.716a.711.711,0,1,1,.711-.711A.764.764,0,0,1,508.484,387.306Z" transform="translate(-4277.767 -3939.345)" fill="#afafaf"/>
    <path id="Path_348" data-name="Path 348" d="M488.23,165.347a.747.747,0,0,0-.776.776v4.139a.323.323,0,0,1-.647,0v-6.079a.766.766,0,0,0-.841-.776.747.747,0,0,0-.776.776v5.756a.323.323,0,1,1-.647,0v-6.92a.747.747,0,0,0-.776-.776.8.8,0,0,0-.841.776v6.726a.323.323,0,1,1-.647,0v-5.562a.747.747,0,0,0-.776-.776.8.8,0,0,0-.841.776v7.373a.323.323,0,0,1-.647,0v-2.522a.747.747,0,0,0-.776-.776.786.786,0,0,0-.776.776v3.1a5.235,5.235,0,0,0,2.393,4.656.49.49,0,0,1,.129.259v1.94h6.144v-1.487a.336.336,0,0,1,.129-.259,4.288,4.288,0,0,0,1.811-3.169v-7.955a.8.8,0,0,0-.841-.776Z" transform="translate(-4254.992 -3734.459)" fill="#afafaf"/>
    <path id="Path_349" data-name="Path 349" d="M299.12,307.18h-8.084a.306.306,0,0,0-.323.323v17.009h8.8V307.5a.41.41,0,0,0-.388-.323Zm-1.358,3.04a.711.711,0,1,1,.711-.711A.718.718,0,0,1,297.762,310.22Z" transform="translate(-4081.984 -3868.014)" fill="#afafaf"/>
    <path id="Path_350" data-name="Path 350" d="M270.119,35.174a1.022,1.022,0,0,0-1.035,1.035v5.174a.323.323,0,0,1-.647,0V33.816a1.09,1.09,0,0,0-1.1-1.1,1.078,1.078,0,0,0-1.1,1.035v7.114a.323.323,0,0,1-.647,0V32.329a1.022,1.022,0,0,0-1.035-1.035,1.078,1.078,0,0,0-1.1,1.035v8.278a.323.323,0,1,1-.647,0V33.816a1.048,1.048,0,0,0-1.1-1.1,1.09,1.09,0,0,0-1.1,1.1v9.119a.323.323,0,1,1-.647,0v-3.1a1.038,1.038,0,0,0-1.1-1.035,1.122,1.122,0,0,0-1.1,1.035v3.88a6.893,6.893,0,0,0,2.975,5.82.49.49,0,0,1,.129.259v2.457h7.89v-1.94a.336.336,0,0,1,.129-.259,5.267,5.267,0,0,0,2.264-4.01v-9.83a1.021,1.021,0,0,0-1.035-1.035Z" transform="translate(-4051.625 -3613.794)" fill="#afafaf"/>
    <path id="Path_351" data-name="Path 351" d="M96.365,165.347a.747.747,0,0,0-.776.776v4.139a.323.323,0,0,1-.647,0v-6.079a.766.766,0,0,0-.841-.776.747.747,0,0,0-.776.776v5.756a.323.323,0,1,1-.647,0v-6.92a.747.747,0,0,0-.776-.776.871.871,0,0,0-.905.841v6.726a.323.323,0,1,1-.647,0v-5.562a.747.747,0,0,0-.776-.776.8.8,0,0,0-.841.776v7.373a.323.323,0,1,1-.647,0V169.1a.815.815,0,0,0-.841-.841.786.786,0,0,0-.776.776v3.1a5.694,5.694,0,0,0,2.393,4.656.49.49,0,0,1,.129.259v1.94h6.273v-1.487a.336.336,0,0,1,.129-.259,4.288,4.288,0,0,0,1.811-3.169v-7.954a.8.8,0,0,0-.841-.776Z" transform="translate(-3893.781 -3734.459)" fill="#afafaf"/>
    <path id="Path_352" data-name="Path 352" d="M119.612,384.59h-6.6a.171.171,0,0,0-.194.194v10.994h6.985V384.784a.291.291,0,0,0-.194-.194Zm-1.552,2.716a.711.711,0,1,1,.711-.711A.718.718,0,0,1,118.06,387.306Z" transform="translate(-3918.063 -3939.345)" fill="#afafaf"/>
  </g>
</svg>
