<svg xmlns="http://www.w3.org/2000/svg" width="43.197" height="33.591" viewBox="0 0 43.197 33.591">
  <path id="Icon_awesome-home" data-name="Icon awesome-home" d="M21.025,10.968,7.2,22.355v12.29a1.2,1.2,0,0,0,1.2,1.2l8.4-.022A1.2,1.2,0,0,0,18,34.623V27.446a1.2,1.2,0,0,1,1.2-1.2h4.8a1.2,1.2,0,0,1,1.2,1.2v7.172a1.2,1.2,0,0,0,1.2,1.2l8.4.023a1.2,1.2,0,0,0,1.2-1.2v-12.3L22.172,10.968A.914.914,0,0,0,21.025,10.968Zm21.839,7.74L36.595,13.54V3.153a.9.9,0,0,0-.9-.9H31.5a.9.9,0,0,0-.9.9V8.6L23.882,3.075a3.6,3.6,0,0,0-4.574,0L.326,18.708a.9.9,0,0,0-.12,1.267L2.118,22.3a.9.9,0,0,0,1.268.122L21.025,7.893a.914.914,0,0,1,1.147,0l17.64,14.528a.9.9,0,0,0,1.267-.12l1.912-2.325a.9.9,0,0,0-.127-1.27Z" transform="translate(0.001 -2.253)" fill="#f47320"/>
</svg>
