<svg xmlns="http://www.w3.org/2000/svg" width="32.331" height="29.4" viewBox="0 0 32.331 29.4">
  <g id="Group_72" data-name="Group 72" transform="translate(0)">
    <path id="Path_367" data-name="Path 367" d="M143.631,105.744a14.528,14.528,0,0,1-10.41-4.332,1.052,1.052,0,1,1,1.5-1.479,12.43,12.43,0,0,0,8.911,3.706,12.6,12.6,0,1,0-12.37-14.924h2.489a.574.574,0,0,1,.525.352.562.562,0,0,1-.125.622l-3.585,3.593a.6.6,0,0,1-.4.166.6.6,0,0,1-.4-.166l-3.585-3.593a.57.57,0,0,1,.4-.974h2.558a14.694,14.694,0,1,1,14.5,17.03Z" transform="translate(-126.002 -76.345)" fill="#304c9f"/>
    <path id="Path_368" data-name="Path 368" d="M309.528,128.237a1.051,1.051,0,0,1,1.051,1.051v8.321a1.931,1.931,0,0,1-1.055,3.548,1.879,1.879,0,0,1-.586-.1l-4.122,4.118a1.052,1.052,0,1,1-1.487-1.487l4.284-4.28c0-.061-.02-.117-.02-.182a1.929,1.929,0,0,1,.877-1.616v-8.321a1.061,1.061,0,0,1,1.059-1.051Z" transform="translate(-291.899 -124.492)" fill="#304c9f"/>
  </g>
</svg>
