<svg xmlns="http://www.w3.org/2000/svg" width="24.008" height="26.495" viewBox="0 0 24.008 26.495">
  <g id="Group_24815" data-name="Group 24815" transform="translate(-326.524 -1151.817)">
    <path id="Path_16683" data-name="Path 16683" d="M199.7,101.967a12,12,0,1,1-16.518-11.093,1.205,1.205,0,0,1,.9,2.23,9.593,9.593,0,1,0,7.231,0,1.205,1.205,0,1,1,.9-2.23,11.932,11.932,0,0,1,7.478,11.094Zm-12-.783a1.205,1.205,0,0,0,1.205-1.205V88.71a1.205,1.205,0,1,0-2.41,0V99.979a1.205,1.205,0,0,0,1.205,1.205Z" transform="translate(150.829 1064.312)" fill="#fff"/>
  </g>
</svg>
