<svg xmlns="http://www.w3.org/2000/svg" width="52" height="59.943" viewBox="0 0 52 59.943">
  <g id="Group_27282" data-name="Group 27282" transform="translate(-6 -2.028)">
    <path id="Path_17529" data-name="Path 17529" d="M33.182,25.192l-11-4.714a3,3,0,0,0-2.364,0l-11,4.714A3,3,0,0,0,7,27.95V43.972a3,3,0,0,0,3,3h3v11a3,3,0,0,0,3,3H26a3,3,0,0,0,3-3v-11h3a3,3,0,0,0,3-3V27.95a3,3,0,0,0-1.818-2.757Z" fill="#7a95e7"/>
    <path id="Path_17530" data-name="Path 17530" d="M21,61.972a1,1,0,0,1-1-1v-14a1,1,0,0,1,2,0v14A1,1,0,0,1,21,61.972Z" fill="#fff"/>
    <path id="Path_17531" data-name="Path 17531" d="M26,61.972H16a4,4,0,0,1-4-4v-10H10a4,4,0,0,1-4-4V27.95a4,4,0,0,1,2.424-3.677l11-4.714a4.016,4.016,0,0,1,3.152,0l11,4.714A4,4,0,0,1,36,27.95V43.972a4,4,0,0,1-4,4H30v10a4,4,0,0,1-4,4ZM21,21.236a1.99,1.99,0,0,0-.786.161l-11,4.714A2,2,0,0,0,8,27.95V43.972a2,2,0,0,0,2,2h3a1,1,0,0,1,1,1v11a2,2,0,0,0,2,2H26a2,2,0,0,0,2-2v-11a1,1,0,0,1,1-1h3a2,2,0,0,0,2-2V27.95a2,2,0,0,0-1.212-1.839c-.076-.031-11-4.719-11.076-4.744A2,2,0,0,0,21,21.236Z" fill="#304c9f"/>
    <path id="Path_17532" data-name="Path 17532" d="M16,21.972l3.373,4.722a2,2,0,0,0,3.255,0L26,21.972" fill="#fff"/>
    <path id="Path_17533" data-name="Path 17533" d="M21,25.972l-4,12h8Z" fill="#fff"/>
    <path id="Path_17534" data-name="Path 17534" d="M57,48.972v10a2.006,2.006,0,0,1-2,2H39a2.006,2.006,0,0,1-2-2v-10l10,5Z" fill="#f47320"/>
    <path id="Path_17535" data-name="Path 17535" d="M57,47.972v1l-10,5-10-5v-1a2.006,2.006,0,0,1,2-2H55A2.006,2.006,0,0,1,57,47.972Z" fill="#e6f3ff"/>
    <path id="Path_17536" data-name="Path 17536" d="M55,44.972H39a3,3,0,0,0-3,3v11a3,3,0,0,0,3,3H55a3,3,0,0,0,3-3v-11A3,3,0,0,0,55,44.972Zm1,14a1,1,0,0,1-1,1H39a1,1,0,0,1-1-1v-11a1,1,0,0,1,1-1H55a1,1,0,0,1,1,1Z" fill="#304c9f"/>
    <path id="Path_17537" data-name="Path 17537" d="M51,46.972H43a1,1,0,0,1-1-1v-2a3,3,0,0,1,3-3h4a3,3,0,0,1,3,3v2A1,1,0,0,1,51,46.972Zm-7-2h6v-1a1,1,0,0,0-1-1H45a1,1,0,0,0-1,1Zm3,12a1,1,0,0,1-1-1v-4a1,1,0,0,1,2,0v4A1,1,0,0,1,47,56.972Zm0-19a1,1,0,0,1-1-1v-2a1,1,0,0,1,2,0v2A1,1,0,0,1,47,37.972Zm-4.483,1.409a1,1,0,0,1-.965-.741l-.518-1.933a1,1,0,0,1,1.932-.518l.518,1.933a1,1,0,0,1-.966,1.259Zm8.966,0a1,1,0,0,1-.966-1.259l.518-1.933a1,1,0,1,1,1.932.518l-.518,1.933a1,1,0,0,1-.965.741Z" fill="#304c9f"/>
    <path id="Path_17538" data-name="Path 17538" d="M31,12.972a10,10,0,0,1-10,10C7.735,22.445,7.739,3.5,21,2.972A10,10,0,0,1,31,12.972Z" fill="#f47320"/>
    <path id="Path_17539" data-name="Path 17539" d="M21,23.972a11.012,11.012,0,0,1-11-11c.6-14.593,21.4-14.589,22,0a11.012,11.012,0,0,1-11,11Zm0-20a9.01,9.01,0,0,0-9,9c.494,11.94,17.507,11.936,18,0a9.01,9.01,0,0,0-9-9Z" fill="#304c9f"/>
  </g>
</svg>
